<svg width="321" height="74" viewBox="0 0 321 74" fill="none" xmlns="http://www.w3.org/2000/svg">
<g clip-path="url(#clip0_458_66)">
<path d="M2.616 35.0002V18.2002H15.288V20.2402H4.992V25.0402H10.224C12.224 25.0402 13.744 25.4562 14.784 26.2882C15.824 27.1202 16.344 28.3282 16.344 29.9122C16.344 31.5442 15.776 32.8002 14.64 33.6802C13.52 34.5602 11.912 35.0002 9.816 35.0002H2.616ZM4.992 33.1042H9.72C11.112 33.1042 12.16 32.8402 12.864 32.3122C13.584 31.7842 13.944 31.0002 13.944 29.9602C13.944 27.9442 12.536 26.9362 9.72 26.9362H4.992V33.1042Z" fill="white"/>
<path d="M25.2347 35.1442C23.9547 35.1442 22.8187 34.8642 21.8267 34.3042C20.8347 33.7442 20.0507 32.9762 19.4747 32.0002C18.8987 31.0082 18.6107 29.8882 18.6107 28.6402C18.6107 27.3762 18.8987 26.2562 19.4747 25.2802C20.0507 24.3042 20.8347 23.5442 21.8267 23.0002C22.8187 22.4402 23.9547 22.1602 25.2347 22.1602C26.4987 22.1602 27.6267 22.4402 28.6187 23.0002C29.6267 23.5442 30.4107 24.3042 30.9707 25.2802C31.5467 26.2402 31.8347 27.3602 31.8347 28.6402C31.8347 29.9042 31.5467 31.0242 30.9707 32.0002C30.4107 32.9762 29.6267 33.7442 28.6187 34.3042C27.6267 34.8642 26.4987 35.1442 25.2347 35.1442ZM25.2347 33.1282C26.0507 33.1282 26.7787 32.9442 27.4187 32.5762C28.0747 32.2082 28.5867 31.6882 28.9547 31.0162C29.3227 30.3282 29.5067 29.5362 29.5067 28.6402C29.5067 27.7282 29.3227 26.9442 28.9547 26.2882C28.5867 25.6162 28.0747 25.0962 27.4187 24.7282C26.7787 24.3602 26.0507 24.1762 25.2347 24.1762C24.4187 24.1762 23.6907 24.3602 23.0507 24.7282C22.4107 25.0962 21.8987 25.6162 21.5147 26.2882C21.1307 26.9442 20.9387 27.7282 20.9387 28.6402C20.9387 29.5362 21.1307 30.3282 21.5147 31.0162C21.8987 31.6882 22.4107 32.2082 23.0507 32.5762C23.6907 32.9442 24.4187 33.1282 25.2347 33.1282Z" fill="white"/>
<path d="M32.9559 34.9762L33.0999 33.0322C33.2119 33.0482 33.3159 33.0642 33.4119 33.0802C33.5079 33.0962 33.5959 33.1042 33.6759 33.1042C34.1879 33.1042 34.5879 32.9282 34.8759 32.5762C35.1799 32.2242 35.4039 31.7602 35.5479 31.1842C35.6919 30.5922 35.7959 29.9282 35.8599 29.1922C35.9239 28.4562 35.9719 27.7202 36.0039 26.9842L36.2199 22.2802H45.9879V35.0002H43.6839V23.6242L44.2359 24.2962H37.7079L38.2359 23.6002L38.0679 27.1282C38.0199 28.2482 37.9319 29.2962 37.8039 30.2722C37.6759 31.2482 37.4759 32.1042 37.2039 32.8402C36.9479 33.5762 36.5879 34.1522 36.1239 34.5682C35.6759 34.9842 35.0919 35.1922 34.3719 35.1922C34.1639 35.1922 33.9399 35.1682 33.6999 35.1202C33.4759 35.0882 33.2279 35.0402 32.9559 34.9762Z" fill="white"/>
<path d="M56.1069 35.1442C54.7469 35.1442 53.5469 34.8642 52.5069 34.3042C51.4829 33.7442 50.6829 32.9762 50.1069 32.0002C49.5469 31.0242 49.2669 29.9042 49.2669 28.6402C49.2669 27.3762 49.5389 26.2562 50.0829 25.2802C50.6429 24.3042 51.4029 23.5442 52.3629 23.0002C53.3389 22.4402 54.4349 22.1602 55.6509 22.1602C56.8829 22.1602 57.9709 22.4322 58.9149 22.9762C59.8589 23.5202 60.5949 24.2882 61.1229 25.2802C61.6669 26.2562 61.9389 27.4002 61.9389 28.7122C61.9389 28.8082 61.9309 28.9202 61.9149 29.0482C61.9149 29.1762 61.9069 29.2962 61.8909 29.4082H51.0669V27.7522H60.6909L59.7549 28.3282C59.7709 27.5122 59.6029 26.7842 59.2509 26.1442C58.8989 25.5042 58.4109 25.0082 57.7869 24.6562C57.1789 24.2882 56.4669 24.1042 55.6509 24.1042C54.8509 24.1042 54.1389 24.2882 53.5149 24.6562C52.8909 25.0082 52.4029 25.5122 52.0509 26.1682C51.6989 26.8082 51.5229 27.5442 51.5229 28.3762V28.7602C51.5229 29.6082 51.7149 30.3682 52.0989 31.0402C52.4989 31.6962 53.0509 32.2082 53.7549 32.5762C54.4589 32.9442 55.2669 33.1282 56.1789 33.1282C56.9309 33.1282 57.6109 33.0002 58.2189 32.7442C58.8429 32.4882 59.3869 32.1042 59.8509 31.5922L61.1229 33.0802C60.5469 33.7522 59.8269 34.2642 58.9629 34.6162C58.1149 34.9682 57.1629 35.1442 56.1069 35.1442Z" fill="white"/>
<path d="M71.1773 35.1442C69.8173 35.1442 68.6172 34.8642 67.5772 34.3042C66.5532 33.7442 65.7532 32.9762 65.1772 32.0002C64.6172 31.0242 64.3372 29.9042 64.3372 28.6402C64.3372 27.3762 64.6092 26.2562 65.1532 25.2802C65.7132 24.3042 66.4733 23.5442 67.4333 23.0002C68.4093 22.4402 69.5053 22.1602 70.7213 22.1602C71.9533 22.1602 73.0413 22.4322 73.9853 22.9762C74.9293 23.5202 75.6653 24.2882 76.1933 25.2802C76.7373 26.2562 77.0092 27.4002 77.0092 28.7122C77.0092 28.8082 77.0013 28.9202 76.9853 29.0482C76.9853 29.1762 76.9773 29.2962 76.9613 29.4082H66.1372V27.7522H75.7613L74.8252 28.3282C74.8412 27.5122 74.6733 26.7842 74.3213 26.1442C73.9693 25.5042 73.4813 25.0082 72.8573 24.6562C72.2493 24.2882 71.5373 24.1042 70.7213 24.1042C69.9213 24.1042 69.2093 24.2882 68.5853 24.6562C67.9613 25.0082 67.4733 25.5122 67.1213 26.1682C66.7693 26.8082 66.5932 27.5442 66.5932 28.3762V28.7602C66.5932 29.6082 66.7853 30.3682 67.1693 31.0402C67.5693 31.6962 68.1212 32.2082 68.8252 32.5762C69.5292 32.9442 70.3373 33.1282 71.2493 33.1282C72.0013 33.1282 72.6813 33.0002 73.2893 32.7442C73.9133 32.4882 74.4572 32.1042 74.9212 31.5922L76.1933 33.0802C75.6173 33.7522 74.8972 34.2642 74.0332 34.6162C73.1852 34.9682 72.2333 35.1442 71.1773 35.1442Z" fill="white"/>
<path d="M0.119995 68.9762L0.263995 67.0322C0.375995 67.0482 0.479995 67.0642 0.575995 67.0802C0.671995 67.0962 0.759995 67.1042 0.839995 67.1042C1.352 67.1042 1.752 66.9282 2.04 66.5762C2.344 66.2242 2.568 65.7602 2.712 65.1842C2.856 64.5922 2.96 63.9282 3.024 63.1922C3.088 62.4562 3.136 61.7202 3.16799 60.9842L3.384 56.2802H13.152V69.0002H10.848V57.6242L11.4 58.2962H4.872L5.4 57.6002L5.232 61.1282C5.184 62.2482 5.096 63.2962 4.968 64.2722C4.84 65.2482 4.64 66.1042 4.368 66.8402C4.112 67.5762 3.752 68.1522 3.288 68.5682C2.84 68.9842 2.256 69.1922 1.536 69.1922C1.328 69.1922 1.104 69.1682 0.863995 69.1202C0.639995 69.0882 0.391995 69.0402 0.119995 68.9762Z" fill="white"/>
<path d="M23.271 69.1442C21.911 69.1442 20.711 68.8642 19.671 68.3042C18.647 67.7442 17.847 66.9762 17.271 66.0002C16.711 65.0242 16.431 63.9042 16.431 62.6402C16.431 61.3762 16.703 60.2562 17.247 59.2802C17.807 58.3042 18.567 57.5442 19.527 57.0002C20.503 56.4402 21.599 56.1602 22.815 56.1602C24.047 56.1602 25.135 56.4322 26.079 56.9762C27.023 57.5202 27.759 58.2882 28.287 59.2802C28.831 60.2562 29.103 61.4002 29.103 62.7122C29.103 62.8082 29.095 62.9202 29.079 63.0482C29.079 63.1762 29.071 63.2962 29.055 63.4082H18.231V61.7522H27.855L26.919 62.3282C26.935 61.5122 26.767 60.7842 26.415 60.1442C26.063 59.5042 25.575 59.0082 24.951 58.6562C24.343 58.2882 23.631 58.1042 22.815 58.1042C22.015 58.1042 21.303 58.2882 20.679 58.6562C20.055 59.0082 19.567 59.5122 19.215 60.1682C18.863 60.8082 18.687 61.5442 18.687 62.3762V62.7602C18.687 63.6082 18.879 64.3682 19.263 65.0402C19.663 65.6962 20.215 66.2082 20.919 66.5762C21.623 66.9442 22.431 67.1282 23.343 67.1282C24.095 67.1282 24.775 67.0002 25.383 66.7442C26.007 66.4882 26.551 66.1042 27.015 65.5922L28.287 67.0802C27.711 67.7522 26.991 68.2642 26.127 68.6162C25.279 68.9682 24.327 69.1442 23.271 69.1442Z" fill="white"/>
<path d="M34.6582 69.0002V57.6962L35.2342 58.2962H30.0022V56.2802H41.6182V58.2962H36.4102L36.9622 57.6962V69.0002H34.6582Z" fill="white"/>
<path d="M50.4195 69.0002V56.2802H52.7235V61.6802H59.9715V56.2802H62.2755V69.0002H59.9715V63.6722H52.7235V69.0002H50.4195Z" fill="white"/>
<path d="M74.5554 69.0002V66.3122L74.4354 65.8082V61.2242C74.4354 60.2482 74.1474 59.4962 73.5714 58.9682C73.0114 58.4242 72.1634 58.1522 71.0274 58.1522C70.2754 58.1522 69.5394 58.2802 68.8194 58.5362C68.0994 58.7762 67.4914 59.1042 66.9954 59.5202L66.0354 57.7922C66.6914 57.2642 67.4754 56.8642 68.3874 56.5922C69.3154 56.3042 70.2834 56.1602 71.2914 56.1602C73.0354 56.1602 74.3794 56.5842 75.3234 57.4322C76.2674 58.2802 76.7394 59.5762 76.7394 61.3202V69.0002H74.5554ZM70.3794 69.1442C69.4354 69.1442 68.6034 68.9842 67.8834 68.6642C67.1794 68.3442 66.6354 67.9042 66.2514 67.3442C65.8674 66.7682 65.6754 66.1202 65.6754 65.4002C65.6754 64.7122 65.8354 64.0882 66.1554 63.5282C66.4914 62.9682 67.0274 62.5202 67.7634 62.1842C68.5154 61.8482 69.5234 61.6802 70.7874 61.6802H74.8194V63.3362H70.8834C69.7314 63.3362 68.9554 63.5282 68.5554 63.9122C68.1554 64.2962 67.9554 64.7602 67.9554 65.3042C67.9554 65.9282 68.2034 66.4322 68.6994 66.8162C69.1954 67.1842 69.8834 67.3682 70.7634 67.3682C71.6274 67.3682 72.3794 67.1762 73.0194 66.7922C73.6754 66.4082 74.1474 65.8482 74.4354 65.1122L74.8914 66.6962C74.5874 67.4482 74.0514 68.0482 73.2834 68.4962C72.5154 68.9282 71.5474 69.1442 70.3794 69.1442Z" fill="white"/>
<path d="M94.0776 69.1442C93.0216 69.1442 92.0536 68.9042 91.1736 68.4242C90.3096 67.9282 89.6136 67.2002 89.0856 66.2402C88.5736 65.2802 88.3176 64.0802 88.3176 62.6402C88.3176 61.2002 88.5656 60.0002 89.0616 59.0402C89.5736 58.0802 90.2616 57.3602 91.1256 56.8802C92.0056 56.4002 92.9896 56.1602 94.0776 56.1602C95.3256 56.1602 96.4296 56.4322 97.3896 56.9762C98.3496 57.5202 99.1096 58.2802 99.6696 59.2562C100.23 60.2162 100.51 61.3442 100.51 62.6402C100.51 63.9362 100.23 65.0722 99.6696 66.0482C99.1096 67.0242 98.3496 67.7842 97.3896 68.3282C96.4296 68.8722 95.3256 69.1442 94.0776 69.1442ZM87.3336 73.6562V56.2802H89.5416V59.7122L89.3976 62.6642L89.6376 65.6162V73.6562H87.3336ZM93.8856 67.1282C94.7016 67.1282 95.4296 66.9442 96.0696 66.5762C96.7256 66.2082 97.2376 65.6882 97.6056 65.0162C97.9896 64.3282 98.1816 63.5362 98.1816 62.6402C98.1816 61.7282 97.9896 60.9442 97.6056 60.2882C97.2376 59.6162 96.7256 59.0962 96.0696 58.7282C95.4296 58.3602 94.7016 58.1762 93.8856 58.1762C93.0856 58.1762 92.3576 58.3602 91.7016 58.7282C91.0616 59.0962 90.5496 59.6162 90.1656 60.2882C89.7976 60.9442 89.6136 61.7282 89.6136 62.6402C89.6136 63.5362 89.7976 64.3282 90.1656 65.0162C90.5496 65.6882 91.0616 66.2082 91.7016 66.5762C92.3576 66.9442 93.0856 67.1282 93.8856 67.1282Z" fill="white"/>
<path d="M116.433 69.0002V56.2802H118.737V69.0002H116.433ZM109.593 60.6002C111.209 60.6162 112.433 60.9842 113.265 61.7042C114.113 62.4242 114.537 63.4402 114.537 64.7522C114.537 66.1282 114.073 67.1922 113.145 67.9442C112.233 68.6802 110.921 69.0402 109.209 69.0242L103.857 69.0002V56.2802H106.161V60.5762L109.593 60.6002ZM109.041 67.2722C110.065 67.2882 110.849 67.0802 111.393 66.6482C111.937 66.2162 112.209 65.5762 112.209 64.7282C112.209 63.8962 111.937 63.2882 111.393 62.9042C110.865 62.5202 110.081 62.3202 109.041 62.3042L106.161 62.2562V67.2482L109.041 67.2722Z" fill="white"/>
<path d="M123.216 69.0002V56.2802H125.52V61.6802H132.768V56.2802H135.072V69.0002H132.768V63.6722H125.52V69.0002H123.216Z" fill="white"/>
<path d="M148.768 69.0002L143.848 62.8082L145.744 61.6562L151.48 69.0002H148.768ZM139.552 69.0002V56.2802H141.856V69.0002H139.552ZM141.16 63.6242V61.6562H145.36V63.6242H141.16ZM145.936 62.9042L143.8 62.6162L148.672 56.2802H151.144L145.936 62.9042Z" fill="white"/>
<path d="M159.138 69.1442C157.778 69.1442 156.578 68.8642 155.538 68.3042C154.514 67.7442 153.714 66.9762 153.138 66.0002C152.578 65.0242 152.298 63.9042 152.298 62.6402C152.298 61.3762 152.57 60.2562 153.114 59.2802C153.674 58.3042 154.434 57.5442 155.394 57.0002C156.37 56.4402 157.466 56.1602 158.682 56.1602C159.914 56.1602 161.002 56.4322 161.946 56.9762C162.89 57.5202 163.626 58.2882 164.154 59.2802C164.698 60.2562 164.97 61.4002 164.97 62.7122C164.97 62.8082 164.962 62.9202 164.946 63.0482C164.946 63.1762 164.938 63.2962 164.922 63.4082H154.098V61.7522H163.722L162.786 62.3282C162.802 61.5122 162.634 60.7842 162.282 60.1442C161.93 59.5042 161.442 59.0082 160.818 58.6562C160.21 58.2882 159.498 58.1042 158.682 58.1042C157.882 58.1042 157.17 58.2882 156.546 58.6562C155.922 59.0082 155.434 59.5122 155.082 60.1682C154.73 60.8082 154.554 61.5442 154.554 62.3762V62.7602C154.554 63.6082 154.746 64.3682 155.13 65.0402C155.53 65.6962 156.082 66.2082 156.786 66.5762C157.49 66.9442 158.298 67.1282 159.21 67.1282C159.962 67.1282 160.642 67.0002 161.25 66.7442C161.874 66.4882 162.418 66.1042 162.882 65.5922L164.154 67.0802C163.578 67.7522 162.858 68.2642 161.994 68.6162C161.146 68.9682 160.194 69.1442 159.138 69.1442Z" fill="white"/>
<path d="M106.6 -0.312012C110.653 -0.312012 114.067 0.562654 116.84 2.31199C119.656 4.06132 121.789 6.59999 123.24 9.92799C124.691 13.2133 125.416 17.2453 125.416 22.024C125.416 27.1013 124.52 31.3893 122.728 34.888C120.936 38.3867 118.461 41.032 115.304 42.824C112.147 44.616 108.456 45.512 104.232 45.512C102.141 45.512 100.115 45.2987 98.152 44.872C96.232 44.4453 94.5467 43.784 93.096 42.888L95.528 37.896C96.7227 38.664 98.0453 39.2187 99.496 39.56C100.989 39.8587 102.547 40.008 104.168 40.008C108.691 40.008 112.296 38.6 114.984 35.784C117.672 32.9253 119.016 28.7013 119.016 23.112C119.016 22.216 118.973 21.1493 118.888 19.912C118.803 18.6747 118.611 17.4587 118.312 16.264L120.424 18.44C119.827 20.4027 118.824 22.0667 117.416 23.432C116.051 24.7547 114.387 25.7573 112.424 26.44C110.504 27.08 108.392 27.4 106.088 27.4C103.144 27.4 100.52 26.8453 98.216 25.736C95.912 24.6267 94.0987 23.0693 92.776 21.064C91.4533 19.016 90.792 16.6053 90.792 13.832C90.792 10.9307 91.4747 8.43465 92.84 6.34399C94.248 4.21065 96.1467 2.56799 98.536 1.41599C100.968 0.263987 103.656 -0.312012 106.6 -0.312012ZM106.856 4.87199C104.936 4.87199 103.229 5.23465 101.736 5.95999C100.243 6.68532 99.0693 7.68799 98.216 8.96799C97.4053 10.248 97 11.784 97 13.576C97 16.2213 97.9173 18.3333 99.752 19.912C101.587 21.448 104.061 22.216 107.176 22.216C109.224 22.216 111.016 21.832 112.552 21.064C114.131 20.296 115.347 19.2507 116.2 17.928C117.096 16.6053 117.544 15.1333 117.544 13.512C117.544 11.9333 117.139 10.504 116.328 9.22399C115.517 7.94399 114.323 6.89865 112.744 6.08799C111.165 5.27732 109.203 4.87199 106.856 4.87199Z" fill="url(#paint0_linear_458_66)"/>
</g>
<defs>
<linearGradient id="paint0_linear_458_66" x1="100.602" y1="4.77954" x2="97.6733" y2="18.697" gradientUnits="userSpaceOnUse">
<stop stop-color="#FFDB11"/>
<stop offset="1" stop-color="#EFAC00"/>
</linearGradient>
<clipPath id="clip0_458_66">
<rect width="321" height="74" fill="white"/>
</clipPath>
</defs>
</svg>
