<svg width="321" height="75" viewBox="0 0 321 75" fill="none" xmlns="http://www.w3.org/2000/svg">
<g clip-path="url(#clip0_458_64)">
<path d="M120.816 42L143.76 8.39996H148.464L125.52 42H120.816ZM123.6 26.496C122.032 26.496 120.64 26.112 119.424 25.344C118.208 24.576 117.264 23.504 116.592 22.128C115.92 20.752 115.584 19.136 115.584 17.28C115.584 15.424 115.92 13.808 116.592 12.432C117.264 11.056 118.208 9.98396 119.424 9.21596C120.64 8.44796 122.032 8.06396 123.6 8.06396C125.232 8.06396 126.64 8.44796 127.824 9.21596C129.04 9.98396 129.984 11.056 130.656 12.432C131.328 13.808 131.664 15.424 131.664 17.28C131.664 19.136 131.328 20.752 130.656 22.128C129.984 23.504 129.04 24.576 127.824 25.344C126.64 26.112 125.232 26.496 123.6 26.496ZM123.648 23.136C124.928 23.136 125.92 22.64 126.624 21.648C127.36 20.624 127.728 19.168 127.728 17.28C127.728 15.392 127.36 13.952 126.624 12.96C125.92 11.936 124.928 11.424 123.648 11.424C122.368 11.424 121.344 11.936 120.576 12.96C119.84 13.984 119.472 15.424 119.472 17.28C119.472 19.136 119.84 20.576 120.576 21.6C121.344 22.624 122.368 23.136 123.648 23.136ZM145.632 42.336C144.064 42.336 142.672 41.952 141.456 41.184C140.24 40.416 139.296 39.344 138.624 37.968C137.952 36.592 137.616 34.976 137.616 33.12C137.616 31.264 137.952 29.648 138.624 28.272C139.296 26.896 140.24 25.824 141.456 25.056C142.672 24.288 144.064 23.904 145.632 23.904C147.264 23.904 148.672 24.288 149.856 25.056C151.072 25.824 152.016 26.896 152.688 28.272C153.36 29.648 153.696 31.264 153.696 33.12C153.696 34.976 153.36 36.592 152.688 37.968C152.016 39.344 151.072 40.416 149.856 41.184C148.672 41.952 147.264 42.336 145.632 42.336ZM145.632 38.976C146.912 38.976 147.92 38.464 148.656 37.44C149.392 36.416 149.76 34.976 149.76 33.12C149.76 31.264 149.392 29.824 148.656 28.8C147.92 27.776 146.912 27.264 145.632 27.264C144.384 27.264 143.376 27.776 142.608 28.8C141.872 29.792 141.504 31.232 141.504 33.12C141.504 35.008 141.872 36.464 142.608 37.488C143.376 38.48 144.384 38.976 145.632 38.976Z" fill="url(#paint0_linear_458_64)"/>
<path d="M10.92 70.9202V61.2962H5.40002L5.28002 63.7442C5.24802 64.5442 5.19202 65.3202 5.11202 66.0722C5.04802 66.8082 4.93602 67.4882 4.77602 68.1122C4.63202 68.7362 4.41602 69.2482 4.12802 69.6482C3.84002 70.0482 3.45602 70.2962 2.97602 70.3922L0.696017 69.9842C1.19202 70.0002 1.59202 69.8402 1.89602 69.5042C2.20002 69.1522 2.43202 68.6722 2.59202 68.0642C2.76802 67.4562 2.89602 66.7682 2.97602 66.0002C3.05602 65.2162 3.12002 64.4082 3.16802 63.5762L3.36002 59.2802H13.224V70.9202H10.92ZM0.192017 74.9522V69.9842H15.168V74.9522H13.008V72.0002H2.37602V74.9522H0.192017Z" fill="white"/>
<path d="M23.6175 72.1442C22.3375 72.1442 21.2015 71.8642 20.2095 71.3042C19.2175 70.7442 18.4335 69.9762 17.8575 69.0002C17.2815 68.0082 16.9935 66.8882 16.9935 65.6402C16.9935 64.3762 17.2815 63.2562 17.8575 62.2802C18.4335 61.3042 19.2175 60.5442 20.2095 60.0002C21.2015 59.4402 22.3375 59.1602 23.6175 59.1602C24.8815 59.1602 26.0095 59.4402 27.0015 60.0002C28.0095 60.5442 28.7935 61.3042 29.3535 62.2802C29.9295 63.2402 30.2175 64.3602 30.2175 65.6402C30.2175 66.9042 29.9295 68.0242 29.3535 69.0002C28.7935 69.9762 28.0095 70.7442 27.0015 71.3042C26.0095 71.8642 24.8815 72.1442 23.6175 72.1442ZM23.6175 70.1282C24.4335 70.1282 25.1615 69.9442 25.8015 69.5762C26.4575 69.2082 26.9695 68.6882 27.3375 68.0162C27.7055 67.3282 27.8895 66.5362 27.8895 65.6402C27.8895 64.7282 27.7055 63.9442 27.3375 63.2882C26.9695 62.6162 26.4575 62.0962 25.8015 61.7282C25.1615 61.3602 24.4335 61.1762 23.6175 61.1762C22.8015 61.1762 22.0735 61.3602 21.4335 61.7282C20.7935 62.0962 20.2815 62.6162 19.8975 63.2882C19.5135 63.9442 19.3215 64.7282 19.3215 65.6402C19.3215 66.5362 19.5135 67.3282 19.8975 68.0162C20.2815 68.6882 20.7935 69.2082 21.4335 69.5762C22.0735 69.9442 22.8015 70.1282 23.6175 70.1282Z" fill="white"/>
<path d="M33.5445 72.0002V59.2802H39.4485C40.9365 59.2802 42.1045 59.5682 42.9525 60.1442C43.8165 60.7042 44.2485 61.5042 44.2485 62.5442C44.2485 63.5842 43.8405 64.3922 43.0245 64.9682C42.2245 65.5282 41.1605 65.8082 39.8325 65.8082L40.1925 65.1842C41.7125 65.1842 42.8405 65.4642 43.5765 66.0242C44.3125 66.5842 44.6805 67.4082 44.6805 68.4962C44.6805 69.6002 44.2645 70.4642 43.4325 71.0882C42.6165 71.6962 41.3605 72.0002 39.6645 72.0002H33.5445ZM35.8005 70.2242H39.4965C40.4565 70.2242 41.1765 70.0802 41.6565 69.7922C42.1365 69.4882 42.3765 69.0082 42.3765 68.3522C42.3765 67.6802 42.1525 67.1922 41.7045 66.8882C41.2725 66.5682 40.5845 66.4082 39.6405 66.4082H35.8005V70.2242ZM35.8005 64.7522H39.2565C40.1365 64.7522 40.8005 64.5922 41.2485 64.2722C41.7125 63.9362 41.9445 63.4722 41.9445 62.8802C41.9445 62.2722 41.7125 61.8162 41.2485 61.5122C40.8005 61.2082 40.1365 61.0562 39.2565 61.0562H35.8005V64.7522Z" fill="white"/>
<path d="M53.7347 72.1442C52.4547 72.1442 51.3187 71.8642 50.3267 71.3042C49.3347 70.7442 48.5507 69.9762 47.9747 69.0002C47.3987 68.0082 47.1107 66.8882 47.1107 65.6402C47.1107 64.3762 47.3987 63.2562 47.9747 62.2802C48.5507 61.3042 49.3347 60.5442 50.3267 60.0002C51.3187 59.4402 52.4547 59.1602 53.7347 59.1602C54.9987 59.1602 56.1267 59.4402 57.1187 60.0002C58.1267 60.5442 58.9107 61.3042 59.4707 62.2802C60.0467 63.2402 60.3347 64.3602 60.3347 65.6402C60.3347 66.9042 60.0467 68.0242 59.4707 69.0002C58.9107 69.9762 58.1267 70.7442 57.1187 71.3042C56.1267 71.8642 54.9987 72.1442 53.7347 72.1442ZM53.7347 70.1282C54.5507 70.1282 55.2787 69.9442 55.9187 69.5762C56.5747 69.2082 57.0867 68.6882 57.4547 68.0162C57.8227 67.3282 58.0067 66.5362 58.0067 65.6402C58.0067 64.7282 57.8227 63.9442 57.4547 63.2882C57.0867 62.6162 56.5747 62.0962 55.9187 61.7282C55.2787 61.3602 54.5507 61.1762 53.7347 61.1762C52.9187 61.1762 52.1907 61.3602 51.5507 61.7282C50.9107 62.0962 50.3987 62.6162 50.0147 63.2882C49.6307 63.9442 49.4387 64.7282 49.4387 65.6402C49.4387 66.5362 49.6307 67.3282 50.0147 68.0162C50.3987 68.6882 50.9107 69.2082 51.5507 69.5762C52.1907 69.9442 52.9187 70.1282 53.7347 70.1282Z" fill="white"/>
<path d="M61.456 71.9762L61.6 70.0322C61.712 70.0482 61.816 70.0642 61.912 70.0802C62.008 70.0962 62.096 70.1042 62.176 70.1042C62.688 70.1042 63.088 69.9282 63.376 69.5762C63.68 69.2242 63.904 68.7602 64.048 68.1842C64.192 67.5922 64.296 66.9282 64.36 66.1922C64.424 65.4562 64.472 64.7202 64.504 63.9842L64.72 59.2802H74.488V72.0002H72.184V60.6242L72.736 61.2962H66.208L66.736 60.6002L66.568 64.1282C66.52 65.2482 66.432 66.2962 66.304 67.2722C66.176 68.2482 65.976 69.1042 65.704 69.8402C65.448 70.5762 65.088 71.1522 64.624 71.5682C64.176 71.9842 63.592 72.1922 62.872 72.1922C62.664 72.1922 62.44 72.1682 62.2 72.1202C61.976 72.0882 61.728 72.0402 61.456 71.9762Z" fill="white"/>
<path d="M84.823 63.6002C86.439 63.6162 87.671 63.9842 88.519 64.7042C89.367 65.4242 89.791 66.4402 89.791 67.7522C89.791 69.1282 89.327 70.1922 88.399 70.9442C87.471 71.6802 86.159 72.0402 84.463 72.0242L78.943 72.0002V59.2802H81.247V63.5762L84.823 63.6002ZM84.271 70.2722C85.311 70.2882 86.095 70.0802 86.623 69.6482C87.167 69.2162 87.4389 68.5762 87.4389 67.7282C87.4389 66.8962 87.175 66.2882 86.647 65.9042C86.119 65.5202 85.327 65.3202 84.271 65.3042L81.247 65.2562V70.2482L84.271 70.2722Z" fill="white"/>
<path d="M92.7476 72.0002V59.2802H95.0516V64.6802H102.3V59.2802H104.604V72.0002H102.3V66.6722H95.0516V72.0002H92.7476Z" fill="white"/>
<path d="M121.66 72.0002V59.2802H123.964V72.0002H121.66ZM114.82 63.6002C116.436 63.6162 117.66 63.9842 118.492 64.7042C119.34 65.4242 119.764 66.4402 119.764 67.7522C119.764 69.1282 119.3 70.1922 118.372 70.9442C117.46 71.6802 116.148 72.0402 114.436 72.0242L109.084 72.0002V59.2802H111.388V63.5762L114.82 63.6002ZM114.268 70.2722C115.292 70.2882 116.076 70.0802 116.62 69.6482C117.164 69.2162 117.436 68.5762 117.436 67.7282C117.436 66.8962 117.164 66.2882 116.62 65.9042C116.092 65.5202 115.308 65.3202 114.268 65.3042L111.388 65.2562V70.2482L114.268 70.2722Z" fill="white"/>
<path d="M126.427 72.0002L131.899 64.8962L131.875 66.0722L126.667 59.2802H129.235L133.219 64.5122H132.235L136.219 59.2802H138.739L133.459 66.1202L133.483 64.8962L139.003 72.0002H136.387L132.187 66.4322L133.123 66.5762L128.995 72.0002H126.427Z" fill="white"/>
<path d="M157.089 72.0002L152.169 65.8082L154.065 64.6562L159.801 72.0002H157.089ZM147.873 72.0002V59.2802H150.177V72.0002H147.873ZM149.481 66.6242V64.6562H153.681V66.6242H149.481ZM154.257 65.9042L152.121 65.6162L156.993 59.2802H159.465L154.257 65.9042Z" fill="white"/>
<path d="M160.104 71.9762L160.248 70.0322C160.36 70.0482 160.464 70.0642 160.56 70.0802C160.656 70.0962 160.744 70.1042 160.824 70.1042C161.336 70.1042 161.736 69.9282 162.024 69.5762C162.328 69.2242 162.552 68.7602 162.696 68.1842C162.84 67.5922 162.944 66.9282 163.008 66.1922C163.072 65.4562 163.12 64.7202 163.152 63.9842L163.368 59.2802H173.136V72.0002H170.832V60.6242L171.384 61.2962H164.856L165.384 60.6002L165.216 64.1282C165.168 65.2482 165.08 66.2962 164.952 67.2722C164.824 68.2482 164.624 69.1042 164.352 69.8402C164.096 70.5762 163.736 71.1522 163.272 71.5682C162.824 71.9842 162.24 72.1922 161.52 72.1922C161.312 72.1922 161.088 72.1682 160.848 72.1202C160.624 72.0882 160.376 72.0402 160.104 71.9762Z" fill="white"/>
<path d="M177.591 72.0002V59.2802H179.895V68.5442L187.695 59.2802H189.783V72.0002H187.479V62.7362L179.703 72.0002H177.591Z" fill="white"/>
<path d="M199.919 72.1442C198.559 72.1442 197.359 71.8642 196.319 71.3042C195.295 70.7442 194.495 69.9762 193.919 69.0002C193.359 68.0242 193.079 66.9042 193.079 65.6402C193.079 64.3762 193.351 63.2562 193.895 62.2802C194.455 61.3042 195.215 60.5442 196.175 60.0002C197.151 59.4402 198.247 59.1602 199.463 59.1602C200.695 59.1602 201.783 59.4322 202.727 59.9762C203.671 60.5202 204.407 61.2882 204.935 62.2802C205.479 63.2562 205.751 64.4002 205.751 65.7122C205.751 65.8082 205.743 65.9202 205.727 66.0482C205.727 66.1762 205.719 66.2962 205.703 66.4082H194.879V64.7522H204.503L203.567 65.3282C203.583 64.5122 203.415 63.7842 203.063 63.1442C202.711 62.5042 202.223 62.0082 201.599 61.6562C200.991 61.2882 200.279 61.1042 199.463 61.1042C198.663 61.1042 197.951 61.2882 197.327 61.6562C196.703 62.0082 196.215 62.5122 195.863 63.1682C195.511 63.8082 195.335 64.5442 195.335 65.3762V65.7602C195.335 66.6082 195.527 67.3682 195.911 68.0402C196.311 68.6962 196.863 69.2082 197.567 69.5762C198.271 69.9442 199.079 70.1282 199.991 70.1282C200.743 70.1282 201.423 70.0002 202.031 69.7442C202.655 69.4882 203.199 69.1042 203.663 68.5922L204.935 70.0802C204.359 70.7522 203.639 71.2642 202.775 71.6162C201.927 71.9682 200.975 72.1442 199.919 72.1442Z" fill="white"/>
<path d="M209.326 72.0002V59.2802H211.63V64.6802H218.878V59.2802H221.182V72.0002H218.878V66.6722H211.63V72.0002H209.326Z" fill="white"/>
<path d="M228.182 72.0002V60.6962L228.758 61.2962H223.526V59.2802H235.142V61.2962H229.934L230.486 60.6962V72.0002H228.182Z" fill="white"/>
<path d="M242.383 72.1442C241.103 72.1442 239.967 71.8642 238.975 71.3042C237.983 70.7442 237.199 69.9762 236.623 69.0002C236.047 68.0082 235.759 66.8882 235.759 65.6402C235.759 64.3762 236.047 63.2562 236.623 62.2802C237.199 61.3042 237.983 60.5442 238.975 60.0002C239.967 59.4402 241.103 59.1602 242.383 59.1602C243.647 59.1602 244.775 59.4402 245.767 60.0002C246.775 60.5442 247.559 61.3042 248.119 62.2802C248.695 63.2402 248.983 64.3602 248.983 65.6402C248.983 66.9042 248.695 68.0242 248.119 69.0002C247.559 69.9762 246.775 70.7442 245.767 71.3042C244.775 71.8642 243.647 72.1442 242.383 72.1442ZM242.383 70.1282C243.199 70.1282 243.927 69.9442 244.567 69.5762C245.223 69.2082 245.735 68.6882 246.103 68.0162C246.471 67.3282 246.655 66.5362 246.655 65.6402C246.655 64.7282 246.471 63.9442 246.103 63.2882C245.735 62.6162 245.223 62.0962 244.567 61.7282C243.927 61.3602 243.199 61.1762 242.383 61.1762C241.567 61.1762 240.839 61.3602 240.199 61.7282C239.559 62.0962 239.047 62.6162 238.663 63.2882C238.279 63.9442 238.087 64.7282 238.087 65.6402C238.087 66.5362 238.279 67.3282 238.663 68.0162C239.047 68.6882 239.559 69.2082 240.199 69.5762C240.839 69.9442 241.567 70.1282 242.383 70.1282Z" fill="white"/>
<path d="M252.31 72.0002V59.2802H258.214C259.702 59.2802 260.87 59.5682 261.718 60.1442C262.582 60.7042 263.014 61.5042 263.014 62.5442C263.014 63.5842 262.606 64.3922 261.79 64.9682C260.99 65.5282 259.926 65.8082 258.598 65.8082L258.958 65.1842C260.478 65.1842 261.606 65.4642 262.342 66.0242C263.078 66.5842 263.446 67.4082 263.446 68.4962C263.446 69.6002 263.03 70.4642 262.198 71.0882C261.382 71.6962 260.126 72.0002 258.43 72.0002H252.31ZM254.566 70.2242H258.262C259.222 70.2242 259.942 70.0802 260.422 69.7922C260.902 69.4882 261.142 69.0082 261.142 68.3522C261.142 67.6802 260.918 67.1922 260.47 66.8882C260.038 66.5682 259.35 66.4082 258.406 66.4082H254.566V70.2242ZM254.566 64.7522H258.022C258.902 64.7522 259.566 64.5922 260.014 64.2722C260.478 63.9362 260.71 63.4722 260.71 62.8802C260.71 62.2722 260.478 61.8162 260.014 61.5122C259.566 61.2082 258.902 61.0562 258.022 61.0562H254.566V64.7522Z" fill="white"/>
<path d="M10.624 45V2.75999L13.376 5.76799H0.511963V0.199986H16.96V45H10.624Z" fill="url(#paint1_linear_458_64)"/>
<path d="M45.0635 45.512C41.5648 45.512 38.4288 44.616 35.6555 42.824C32.9248 41.032 30.7488 38.4293 29.1275 35.016C27.5488 31.6027 26.7595 27.464 26.7595 22.6C26.7595 17.736 27.5488 13.5973 29.1275 10.184C30.7488 6.77065 32.9248 4.16799 35.6555 2.37599C38.4288 0.583988 41.5648 -0.312012 45.0635 -0.312012C48.5195 -0.312012 51.6341 0.583988 54.4075 2.37599C57.1808 4.16799 59.3568 6.77065 60.9355 10.184C62.5141 13.5973 63.3035 17.736 63.3035 22.6C63.3035 27.464 62.5141 31.6027 60.9355 35.016C59.3568 38.4293 57.1808 41.032 54.4075 42.824C51.6341 44.616 48.5195 45.512 45.0635 45.512ZM45.0635 39.816C47.4101 39.816 49.4581 39.176 51.2075 37.896C52.9995 36.616 54.3861 34.696 55.3675 32.136C56.3915 29.576 56.9035 26.3973 56.9035 22.6C56.9035 18.8027 56.3915 15.624 55.3675 13.064C54.3861 10.504 52.9995 8.58399 51.2075 7.30399C49.4581 6.02399 47.4101 5.38399 45.0635 5.38399C42.7168 5.38399 40.6475 6.02399 38.8555 7.30399C37.0635 8.58399 35.6555 10.504 34.6315 13.064C33.6501 15.624 33.1595 18.8027 33.1595 22.6C33.1595 26.3973 33.6501 29.576 34.6315 32.136C35.6555 34.696 37.0635 36.616 38.8555 37.896C40.6475 39.176 42.7168 39.816 45.0635 39.816Z" fill="url(#paint2_linear_458_64)"/>
<path d="M87.751 45.512C84.2523 45.512 81.1163 44.616 78.343 42.824C75.6123 41.032 73.4363 38.4293 71.815 35.016C70.2363 31.6027 69.447 27.464 69.447 22.6C69.447 17.736 70.2363 13.5973 71.815 10.184C73.4363 6.77065 75.6123 4.16799 78.343 2.37599C81.1163 0.583988 84.2523 -0.312012 87.751 -0.312012C91.207 -0.312012 94.3216 0.583988 97.095 2.37599C99.8683 4.16799 102.044 6.77065 103.623 10.184C105.202 13.5973 105.991 17.736 105.991 22.6C105.991 27.464 105.202 31.6027 103.623 35.016C102.044 38.4293 99.8683 41.032 97.095 42.824C94.3216 44.616 91.207 45.512 87.751 45.512ZM87.751 39.816C90.0976 39.816 92.1456 39.176 93.895 37.896C95.687 36.616 97.0736 34.696 98.055 32.136C99.079 29.576 99.591 26.3973 99.591 22.6C99.591 18.8027 99.079 15.624 98.055 13.064C97.0736 10.504 95.687 8.58399 93.895 7.30399C92.1456 6.02399 90.0976 5.38399 87.751 5.38399C85.4043 5.38399 83.335 6.02399 81.543 7.30399C79.751 8.58399 78.343 10.504 77.319 13.064C76.3376 15.624 75.847 18.8027 75.847 22.6C75.847 26.3973 76.3376 29.576 77.319 32.136C78.343 34.696 79.751 36.616 81.543 37.896C83.335 39.176 85.4043 39.816 87.751 39.816Z" fill="url(#paint3_linear_458_64)"/>
</g>
<defs>
<linearGradient id="paint0_linear_458_64" x1="74.7807" y1="8.05067" x2="73.6977" y2="31.8727" gradientUnits="userSpaceOnUse">
<stop stop-color="#FFDB11"/>
<stop offset="1" stop-color="#EFAC00"/>
</linearGradient>
<linearGradient id="paint1_linear_458_64" x1="74.7807" y1="8.05067" x2="73.6977" y2="31.8727" gradientUnits="userSpaceOnUse">
<stop stop-color="#FFDB11"/>
<stop offset="1" stop-color="#EFAC00"/>
</linearGradient>
<linearGradient id="paint2_linear_458_64" x1="74.7807" y1="8.05067" x2="73.6977" y2="31.8727" gradientUnits="userSpaceOnUse">
<stop stop-color="#FFDB11"/>
<stop offset="1" stop-color="#EFAC00"/>
</linearGradient>
<linearGradient id="paint3_linear_458_64" x1="74.7807" y1="8.05067" x2="73.6977" y2="31.8727" gradientUnits="userSpaceOnUse">
<stop stop-color="#FFDB11"/>
<stop offset="1" stop-color="#EFAC00"/>
</linearGradient>
<clipPath id="clip0_458_64">
<rect width="321" height="75" fill="white"/>
</clipPath>
</defs>
</svg>
