<svg width="321" height="72" viewBox="0 0 321 72" fill="none" xmlns="http://www.w3.org/2000/svg">
<g clip-path="url(#clip0_458_65)">
<path d="M1.61597 33.0002V16.2002H14.288V18.2402H3.99197V23.0402H9.22397C11.224 23.0402 12.744 23.4562 13.784 24.2882C14.824 25.1202 15.344 26.3282 15.344 27.9122C15.344 29.5442 14.776 30.8002 13.64 31.6802C12.52 32.5602 10.912 33.0002 8.81597 33.0002H1.61597ZM3.99197 31.1042H8.71997C10.112 31.1042 11.16 30.8402 11.864 30.3122C12.584 29.7842 12.944 29.0002 12.944 27.9602C12.944 25.9442 11.536 24.9362 8.71997 24.9362H3.99197V31.1042Z" fill="white"/>
<path d="M24.2347 33.1442C22.9547 33.1442 21.8187 32.8642 20.8267 32.3042C19.8347 31.7442 19.0507 30.9762 18.4747 30.0002C17.8987 29.0082 17.6107 27.8882 17.6107 26.6402C17.6107 25.3762 17.8987 24.2562 18.4747 23.2802C19.0507 22.3042 19.8347 21.5442 20.8267 21.0002C21.8187 20.4402 22.9547 20.1602 24.2347 20.1602C25.4987 20.1602 26.6267 20.4402 27.6187 21.0002C28.6267 21.5442 29.4107 22.3042 29.9707 23.2802C30.5467 24.2402 30.8347 25.3602 30.8347 26.6402C30.8347 27.9042 30.5467 29.0242 29.9707 30.0002C29.4107 30.9762 28.6267 31.7442 27.6187 32.3042C26.6267 32.8642 25.4987 33.1442 24.2347 33.1442ZM24.2347 31.1282C25.0507 31.1282 25.7787 30.9442 26.4187 30.5762C27.0747 30.2082 27.5867 29.6882 27.9547 29.0162C28.3227 28.3282 28.5067 27.5362 28.5067 26.6402C28.5067 25.7282 28.3227 24.9442 27.9547 24.2882C27.5867 23.6162 27.0747 23.0962 26.4187 22.7282C25.7787 22.3602 25.0507 22.1762 24.2347 22.1762C23.4187 22.1762 22.6907 22.3602 22.0507 22.7282C21.4107 23.0962 20.8987 23.6162 20.5147 24.2882C20.1307 24.9442 19.9387 25.7282 19.9387 26.6402C19.9387 27.5362 20.1307 28.3282 20.5147 29.0162C20.8987 29.6882 21.4107 30.2082 22.0507 30.5762C22.6907 30.9442 23.4187 31.1282 24.2347 31.1282Z" fill="white"/>
<path d="M31.9559 32.9762L32.0999 31.0322C32.2119 31.0482 32.3159 31.0642 32.4119 31.0802C32.5079 31.0962 32.5959 31.1042 32.6759 31.1042C33.1879 31.1042 33.5879 30.9282 33.8759 30.5762C34.1799 30.2242 34.4039 29.7602 34.5479 29.1842C34.6919 28.5922 34.7959 27.9282 34.8599 27.1922C34.9239 26.4562 34.9719 25.7202 35.0039 24.9842L35.2199 20.2802H44.9879V33.0002H42.6839V21.6242L43.2359 22.2962H36.7079L37.2359 21.6002L37.0679 25.1282C37.0199 26.2482 36.9319 27.2962 36.8039 28.2722C36.6759 29.2482 36.4759 30.1042 36.2039 30.8402C35.9479 31.5762 35.5879 32.1522 35.1239 32.5682C34.6759 32.9842 34.0919 33.1922 33.3719 33.1922C33.1639 33.1922 32.9399 33.1682 32.6999 33.1202C32.4759 33.0882 32.2279 33.0402 31.9559 32.9762Z" fill="white"/>
<path d="M55.1069 33.1442C53.7469 33.1442 52.5469 32.8642 51.5069 32.3042C50.4829 31.7442 49.6829 30.9762 49.1069 30.0002C48.5469 29.0242 48.2669 27.9042 48.2669 26.6402C48.2669 25.3762 48.5389 24.2562 49.0829 23.2802C49.6429 22.3042 50.4029 21.5442 51.3629 21.0002C52.3389 20.4402 53.4349 20.1602 54.6509 20.1602C55.8829 20.1602 56.9709 20.4322 57.9149 20.9762C58.8589 21.5202 59.5949 22.2882 60.1229 23.2802C60.6669 24.2562 60.9389 25.4002 60.9389 26.7122C60.9389 26.8082 60.9309 26.9202 60.9149 27.0482C60.9149 27.1762 60.9069 27.2962 60.8909 27.4082H50.0669V25.7522H59.6909L58.7549 26.3282C58.7709 25.5122 58.6029 24.7842 58.2509 24.1442C57.8989 23.5042 57.4109 23.0082 56.7869 22.6562C56.1789 22.2882 55.4669 22.1042 54.6509 22.1042C53.8509 22.1042 53.1389 22.2882 52.5149 22.6562C51.8909 23.0082 51.4029 23.5122 51.0509 24.1682C50.6989 24.8082 50.5229 25.5442 50.5229 26.3762V26.7602C50.5229 27.6082 50.7149 28.3682 51.0989 29.0402C51.4989 29.6962 52.0509 30.2082 52.7549 30.5762C53.4589 30.9442 54.2669 31.1282 55.1789 31.1282C55.9309 31.1282 56.6109 31.0002 57.2189 30.7442C57.8429 30.4882 58.3869 30.1042 58.8509 29.5922L60.1229 31.0802C59.5469 31.7522 58.8269 32.2642 57.9629 32.6162C57.1149 32.9682 56.1629 33.1442 55.1069 33.1442Z" fill="white"/>
<path d="M70.1772 33.1442C68.8172 33.1442 67.6172 32.8642 66.5772 32.3042C65.5532 31.7442 64.7532 30.9762 64.1772 30.0002C63.6172 29.0242 63.3372 27.9042 63.3372 26.6402C63.3372 25.3762 63.6092 24.2562 64.1532 23.2802C64.7132 22.3042 65.4732 21.5442 66.4332 21.0002C67.4092 20.4402 68.5052 20.1602 69.7212 20.1602C70.9532 20.1602 72.0412 20.4322 72.9852 20.9762C73.9292 21.5202 74.6652 22.2882 75.1932 23.2802C75.7372 24.2562 76.0092 25.4002 76.0092 26.7122C76.0092 26.8082 76.0012 26.9202 75.9852 27.0482C75.9852 27.1762 75.9772 27.2962 75.9612 27.4082H65.1372V25.7522H74.7612L73.8252 26.3282C73.8412 25.5122 73.6732 24.7842 73.3212 24.1442C72.9692 23.5042 72.4812 23.0082 71.8572 22.6562C71.2492 22.2882 70.5372 22.1042 69.7212 22.1042C68.9212 22.1042 68.2092 22.2882 67.5852 22.6562C66.9612 23.0082 66.4732 23.5122 66.1212 24.1682C65.7692 24.8082 65.5932 25.5442 65.5932 26.3762V26.7602C65.5932 27.6082 65.7852 28.3682 66.1692 29.0402C66.5692 29.6962 67.1212 30.2082 67.8252 30.5762C68.5292 30.9442 69.3372 31.1282 70.2492 31.1282C71.0012 31.1282 71.6812 31.0002 72.2892 30.7442C72.9132 30.4882 73.4572 30.1042 73.9212 29.5922L75.1932 31.0802C74.6172 31.7522 73.8972 32.2642 73.0332 32.6162C72.1852 32.9682 71.2332 33.1442 70.1772 33.1442Z" fill="white"/>
<path d="M6.89603 67.1442C5.53603 67.1442 4.33603 66.8642 3.29603 66.3042C2.27203 65.7442 1.47203 64.9762 0.89603 64.0002C0.33603 63.0242 0.0560303 61.9042 0.0560303 60.6402C0.0560303 59.3762 0.32803 58.2562 0.87203 57.2802C1.43203 56.3042 2.19203 55.5442 3.15203 55.0002C4.12803 54.4402 5.22403 54.1602 6.44003 54.1602C7.67203 54.1602 8.76003 54.4322 9.70403 54.9762C10.648 55.5202 11.384 56.2882 11.912 57.2802C12.456 58.2562 12.728 59.4002 12.728 60.7122C12.728 60.8082 12.72 60.9202 12.704 61.0482C12.704 61.1762 12.696 61.2962 12.68 61.4082H1.85603V59.7522H11.48L10.544 60.3282C10.56 59.5122 10.392 58.7842 10.04 58.1442C9.68803 57.5042 9.20003 57.0082 8.57603 56.6562C7.96803 56.2882 7.25603 56.1042 6.44003 56.1042C5.64003 56.1042 4.92803 56.2882 4.30403 56.6562C3.68003 57.0082 3.19203 57.5122 2.84003 58.1682C2.48803 58.8082 2.31203 59.5442 2.31203 60.3762V60.7602C2.31203 61.6082 2.50403 62.3682 2.88803 63.0402C3.28803 63.6962 3.84003 64.2082 4.54403 64.5762C5.24803 64.9442 6.05603 65.1282 6.96803 65.1282C7.72003 65.1282 8.40003 65.0002 9.00803 64.7442C9.63203 64.4882 10.176 64.1042 10.64 63.5922L11.912 65.0802C11.336 65.7522 10.616 66.2642 9.75203 66.6162C8.90403 66.9682 7.95203 67.1442 6.89603 67.1442Z" fill="white"/>
<path d="M24.7794 65.9202V56.2962H19.2594L19.1394 58.7442C19.1074 59.5442 19.0514 60.3202 18.9714 61.0722C18.9074 61.8082 18.7954 62.4882 18.6354 63.1122C18.4914 63.7362 18.2754 64.2482 17.9874 64.6482C17.6994 65.0482 17.3154 65.2962 16.8354 65.3922L14.5554 64.9842C15.0514 65.0002 15.4514 64.8402 15.7554 64.5042C16.0594 64.1522 16.2914 63.6722 16.4514 63.0642C16.6274 62.4562 16.7554 61.7682 16.8354 61.0002C16.9154 60.2162 16.9794 59.4082 17.0274 58.5762L17.2194 54.2802H27.0834V65.9202H24.7794ZM14.0514 69.9522V64.9842H29.0274V69.9522H26.8674V67.0002H16.2354V69.9522H14.0514Z" fill="white"/>
<path d="M32.0289 67.0002V54.2802H34.3329V63.5442L42.1329 54.2802H44.2209V67.0002H41.9169V57.7362L34.1409 67.0002H32.0289Z" fill="white"/>
<path d="M48.693 67.0002V54.2802H50.997V59.6802H58.245V54.2802H60.549V67.0002H58.245V61.6722H50.997V67.0002H48.693Z" fill="white"/>
<path d="M65.0289 67.0002V54.2802H67.3329V63.5442L75.1329 54.2802H77.2209V67.0002H74.9169V57.7362L67.1409 67.0002H65.0289Z" fill="white"/>
<path d="M81.693 67.0002V54.2802H83.997V64.9842H90.957V54.2802H93.261V67.0002H81.693ZM93.093 69.9522V66.8802L93.669 67.0002H90.957V64.9842H95.277V69.9522H93.093Z" fill="white"/>
<path d="M107.229 67.0002V55.6962L107.805 56.2962H102.573V54.2802H114.189V56.2962H108.981L109.533 55.6962V67.0002H107.229Z" fill="white"/>
<path d="M121.646 67.1442C120.286 67.1442 119.086 66.8642 118.046 66.3042C117.022 65.7442 116.222 64.9762 115.646 64.0002C115.086 63.0242 114.806 61.9042 114.806 60.6402C114.806 59.3762 115.078 58.2562 115.622 57.2802C116.182 56.3042 116.942 55.5442 117.902 55.0002C118.878 54.4402 119.974 54.1602 121.19 54.1602C122.422 54.1602 123.51 54.4322 124.454 54.9762C125.398 55.5202 126.134 56.2882 126.662 57.2802C127.206 58.2562 127.478 59.4002 127.478 60.7122C127.478 60.8082 127.47 60.9202 127.454 61.0482C127.454 61.1762 127.446 61.2962 127.43 61.4082H116.606V59.7522H126.23L125.294 60.3282C125.31 59.5122 125.142 58.7842 124.79 58.1442C124.438 57.5042 123.95 57.0082 123.326 56.6562C122.718 56.2882 122.006 56.1042 121.19 56.1042C120.39 56.1042 119.678 56.2882 119.054 56.6562C118.43 57.0082 117.942 57.5122 117.59 58.1682C117.238 58.8082 117.062 59.5442 117.062 60.3762V60.7602C117.062 61.6082 117.254 62.3682 117.638 63.0402C118.038 63.6962 118.59 64.2082 119.294 64.5762C119.998 64.9442 120.806 65.1282 121.718 65.1282C122.47 65.1282 123.15 65.0002 123.758 64.7442C124.382 64.4882 124.926 64.1042 125.39 63.5922L126.662 65.0802C126.086 65.7522 125.366 66.2642 124.502 66.6162C123.654 66.9682 122.702 67.1442 121.646 67.1442Z" fill="white"/>
<path d="M128.685 67.0002L134.157 59.8962L134.133 61.0722L128.925 54.2802H131.493L135.477 59.5122H134.493L138.477 54.2802H140.997L135.717 61.1202L135.741 59.8962L141.261 67.0002H138.645L134.445 61.4322L135.381 61.5762L131.253 67.0002H128.685Z" fill="white"/>
<path d="M143.685 67.0002V54.2802H145.989V59.6802H153.237V54.2802H155.541V67.0002H153.237V61.6722H145.989V67.0002H143.685Z" fill="white"/>
<path d="M160.021 67.0002V54.2802H162.325V63.5442L170.125 54.2802H172.213V67.0002H169.909V57.7362L162.133 67.0002H160.021Z" fill="white"/>
<path d="M185.901 67.0002L180.981 60.8082L182.877 59.6562L188.613 67.0002H185.901ZM176.685 67.0002V54.2802H178.989V67.0002H176.685ZM178.293 61.6242V59.6562H182.493V61.6242H178.293ZM183.069 60.9042L180.933 60.6162L185.805 54.2802H188.277L183.069 60.9042Z" fill="white"/>
<path d="M191.029 67.0002V54.2802H193.333V63.5442L201.133 54.2802H203.221V67.0002H200.917V57.7362L193.141 67.0002H191.029Z" fill="white"/>
<path d="M214.138 67.0002V54.2802H225.922V67.0002H223.618V55.7202L224.17 56.2962H215.89L216.442 55.7202V67.0002H214.138Z" fill="white"/>
<path d="M237.124 67.1442C236.068 67.1442 235.1 66.9042 234.22 66.4242C233.356 65.9282 232.66 65.2002 232.132 64.2402C231.62 63.2802 231.364 62.0802 231.364 60.6402C231.364 59.2002 231.612 58.0002 232.108 57.0402C232.62 56.0802 233.308 55.3602 234.172 54.8802C235.052 54.4002 236.036 54.1602 237.124 54.1602C238.372 54.1602 239.476 54.4322 240.436 54.9762C241.396 55.5202 242.156 56.2802 242.716 57.2562C243.276 58.2162 243.556 59.3442 243.556 60.6402C243.556 61.9362 243.276 63.0722 242.716 64.0482C242.156 65.0242 241.396 65.7842 240.436 66.3282C239.476 66.8722 238.372 67.1442 237.124 67.1442ZM230.38 71.6562V54.2802H232.588V57.7122L232.444 60.6642L232.684 63.6162V71.6562H230.38ZM236.932 65.1282C237.748 65.1282 238.476 64.9442 239.116 64.5762C239.772 64.2082 240.284 63.6882 240.652 63.0162C241.036 62.3282 241.228 61.5362 241.228 60.6402C241.228 59.7282 241.036 58.9442 240.652 58.2882C240.284 57.6162 239.772 57.0962 239.116 56.7282C238.476 56.3602 237.748 56.1762 236.932 56.1762C236.132 56.1762 235.404 56.3602 234.748 56.7282C234.108 57.0962 233.596 57.6162 233.212 58.2882C232.844 58.9442 232.66 59.7282 232.66 60.6402C232.66 61.5362 232.844 62.3282 233.212 63.0162C233.596 63.6882 234.108 64.2082 234.748 64.5762C235.404 64.9442 236.132 65.1282 236.932 65.1282Z" fill="white"/>
<path d="M252.352 67.1442C251.072 67.1442 249.936 66.8642 248.944 66.3042C247.952 65.7442 247.168 64.9762 246.592 64.0002C246.016 63.0082 245.728 61.8882 245.728 60.6402C245.728 59.3762 246.016 58.2562 246.592 57.2802C247.168 56.3042 247.952 55.5442 248.944 55.0002C249.936 54.4402 251.072 54.1602 252.352 54.1602C253.616 54.1602 254.744 54.4402 255.736 55.0002C256.744 55.5442 257.528 56.3042 258.088 57.2802C258.664 58.2402 258.952 59.3602 258.952 60.6402C258.952 61.9042 258.664 63.0242 258.088 64.0002C257.528 64.9762 256.744 65.7442 255.736 66.3042C254.744 66.8642 253.616 67.1442 252.352 67.1442ZM252.352 65.1282C253.168 65.1282 253.896 64.9442 254.536 64.5762C255.192 64.2082 255.704 63.6882 256.072 63.0162C256.44 62.3282 256.624 61.5362 256.624 60.6402C256.624 59.7282 256.44 58.9442 256.072 58.2882C255.704 57.6162 255.192 57.0962 254.536 56.7282C253.896 56.3602 253.168 56.1762 252.352 56.1762C251.536 56.1762 250.808 56.3602 250.168 56.7282C249.528 57.0962 249.016 57.6162 248.632 58.2882C248.248 58.9442 248.056 59.7282 248.056 60.6402C248.056 61.5362 248.248 62.3282 248.632 63.0162C249.016 63.6882 249.528 64.2082 250.168 64.5762C250.808 64.9442 251.536 65.1282 252.352 65.1282Z" fill="white"/>
<path d="M270.873 65.9202V56.2962H265.353L265.233 58.7442C265.201 59.5442 265.145 60.3202 265.065 61.0722C265.001 61.8082 264.889 62.4882 264.729 63.1122C264.585 63.7362 264.369 64.2482 264.081 64.6482C263.793 65.0482 263.409 65.2962 262.929 65.3922L260.649 64.9842C261.145 65.0002 261.545 64.8402 261.849 64.5042C262.153 64.1522 262.385 63.6722 262.545 63.0642C262.721 62.4562 262.849 61.7682 262.929 61.0002C263.009 60.2162 263.073 59.4082 263.121 58.5762L263.313 54.2802H273.177V65.9202H270.873ZM260.145 69.9522V64.9842H275.121V69.9522H272.961V67.0002H262.329V69.9522H260.145Z" fill="white"/>
<path d="M285.923 67.0002V64.3122L285.803 63.8082V59.2242C285.803 58.2482 285.515 57.4962 284.939 56.9682C284.379 56.4242 283.531 56.1522 282.395 56.1522C281.643 56.1522 280.907 56.2802 280.187 56.5362C279.467 56.7762 278.859 57.1042 278.363 57.5202L277.403 55.7922C278.059 55.2642 278.843 54.8642 279.755 54.5922C280.683 54.3042 281.651 54.1602 282.659 54.1602C284.403 54.1602 285.747 54.5842 286.691 55.4322C287.635 56.2802 288.107 57.5762 288.107 59.3202V67.0002H285.923ZM281.747 67.1442C280.803 67.1442 279.971 66.9842 279.251 66.6642C278.547 66.3442 278.003 65.9042 277.619 65.3442C277.235 64.7682 277.043 64.1202 277.043 63.4002C277.043 62.7122 277.203 62.0882 277.523 61.5282C277.859 60.9682 278.395 60.5202 279.131 60.1842C279.883 59.8482 280.891 59.6802 282.155 59.6802H286.187V61.3362H282.251C281.099 61.3362 280.323 61.5282 279.923 61.9122C279.523 62.2962 279.323 62.7602 279.323 63.3042C279.323 63.9282 279.571 64.4322 280.067 64.8162C280.563 65.1842 281.251 65.3682 282.131 65.3682C282.995 65.3682 283.747 65.1762 284.387 64.7922C285.043 64.4082 285.515 63.8482 285.803 63.1122L286.259 64.6962C285.955 65.4482 285.419 66.0482 284.651 66.4962C283.883 66.9282 282.915 67.1442 281.747 67.1442Z" fill="white"/>
<path d="M292.255 67.0002V54.2802H294.559V59.6802H301.807V54.2802H304.111V67.0002H301.807V61.6722H294.559V67.0002H292.255Z" fill="white"/>
<path d="M314.039 67.1442C312.759 67.1442 311.623 66.8642 310.631 66.3042C309.639 65.7442 308.855 64.9762 308.279 64.0002C307.703 63.0082 307.415 61.8882 307.415 60.6402C307.415 59.3762 307.703 58.2562 308.279 57.2802C308.855 56.3042 309.639 55.5442 310.631 55.0002C311.623 54.4402 312.759 54.1602 314.039 54.1602C315.303 54.1602 316.431 54.4402 317.423 55.0002C318.431 55.5442 319.215 56.3042 319.775 57.2802C320.351 58.2402 320.639 59.3602 320.639 60.6402C320.639 61.9042 320.351 63.0242 319.775 64.0002C319.215 64.9762 318.431 65.7442 317.423 66.3042C316.431 66.8642 315.303 67.1442 314.039 67.1442ZM314.039 65.1282C314.855 65.1282 315.583 64.9442 316.223 64.5762C316.879 64.2082 317.391 63.6882 317.759 63.0162C318.127 62.3282 318.311 61.5362 318.311 60.6402C318.311 59.7282 318.127 58.9442 317.759 58.2882C317.391 57.6162 316.879 57.0962 316.223 56.7282C315.583 56.3602 314.855 56.1762 314.039 56.1762C313.223 56.1762 312.495 56.3602 311.855 56.7282C311.215 57.0962 310.703 57.6162 310.319 58.2882C309.935 58.9442 309.743 59.7282 309.743 60.6402C309.743 61.5362 309.935 62.3282 310.319 63.0162C310.703 63.6882 311.215 64.2082 311.855 64.5762C312.495 64.9442 313.223 65.1282 314.039 65.1282Z" fill="white"/>
<path d="M104.768 45.512C101.611 45.512 98.5386 45.0213 95.5519 44.04C92.6079 43.0587 90.1973 41.736 88.3199 40.072L91.2639 35.016C92.7573 36.424 94.6986 37.576 97.0879 38.472C99.4773 39.368 102.037 39.816 104.768 39.816C108.096 39.816 110.677 39.112 112.512 37.704C114.389 36.2533 115.328 34.312 115.328 31.88C115.328 29.5333 114.432 27.656 112.64 26.248C110.891 24.7973 108.096 24.072 104.256 24.072H100.672V19.592L113.984 3.20798L114.88 5.76799H90.3679V0.199986H119.936V4.55199L106.688 20.872L103.36 18.888H105.472C110.891 18.888 114.944 20.104 117.632 22.536C120.363 24.968 121.728 28.0613 121.728 31.816C121.728 34.3333 121.109 36.6373 119.872 38.728C118.635 40.8187 116.757 42.4827 114.24 43.72C111.765 44.9147 108.608 45.512 104.768 45.512Z" fill="url(#paint0_linear_458_65)"/>
<path d="M146.001 45.512C142.502 45.512 139.366 44.616 136.593 42.824C133.862 41.032 131.686 38.4293 130.065 35.016C128.486 31.6027 127.697 27.464 127.697 22.6C127.697 17.736 128.486 13.5973 130.065 10.184C131.686 6.77065 133.862 4.16799 136.593 2.37599C139.366 0.583988 142.502 -0.312012 146.001 -0.312012C149.457 -0.312012 152.572 0.583988 155.345 2.37599C158.118 4.16799 160.294 6.77065 161.873 10.184C163.452 13.5973 164.241 17.736 164.241 22.6C164.241 27.464 163.452 31.6027 161.873 35.016C160.294 38.4293 158.118 41.032 155.345 42.824C152.572 44.616 149.457 45.512 146.001 45.512ZM146.001 39.816C148.348 39.816 150.396 39.176 152.145 37.896C153.937 36.616 155.324 34.696 156.305 32.136C157.329 29.576 157.841 26.3973 157.841 22.6C157.841 18.8027 157.329 15.624 156.305 13.064C155.324 10.504 153.937 8.58399 152.145 7.30399C150.396 6.02399 148.348 5.38399 146.001 5.38399C143.654 5.38399 141.585 6.02399 139.793 7.30399C138.001 8.58399 136.593 10.504 135.569 13.064C134.588 15.624 134.097 18.8027 134.097 22.6C134.097 26.3973 134.588 29.576 135.569 32.136C136.593 34.696 138.001 36.616 139.793 37.896C141.585 39.176 143.654 39.816 146.001 39.816Z" fill="url(#paint1_linear_458_65)"/>
<path d="M188.688 45.512C185.19 45.512 182.054 44.616 179.28 42.824C176.55 41.032 174.374 38.4293 172.752 35.016C171.174 31.6027 170.384 27.464 170.384 22.6C170.384 17.736 171.174 13.5973 172.752 10.184C174.374 6.77065 176.55 4.16799 179.28 2.37599C182.054 0.583988 185.19 -0.312012 188.688 -0.312012C192.144 -0.312012 195.259 0.583988 198.032 2.37599C200.806 4.16799 202.982 6.77065 204.56 10.184C206.139 13.5973 206.928 17.736 206.928 22.6C206.928 27.464 206.139 31.6027 204.56 35.016C202.982 38.4293 200.806 41.032 198.032 42.824C195.259 44.616 192.144 45.512 188.688 45.512ZM188.688 39.816C191.035 39.816 193.083 39.176 194.832 37.896C196.624 36.616 198.011 34.696 198.992 32.136C200.016 29.576 200.528 26.3973 200.528 22.6C200.528 18.8027 200.016 15.624 198.992 13.064C198.011 10.504 196.624 8.58399 194.832 7.30399C193.083 6.02399 191.035 5.38399 188.688 5.38399C186.342 5.38399 184.272 6.02399 182.48 7.30399C180.688 8.58399 179.28 10.504 178.256 13.064C177.275 15.624 176.784 18.8027 176.784 22.6C176.784 26.3973 177.275 29.576 178.256 32.136C179.28 34.696 180.688 36.616 182.48 37.896C184.272 39.176 186.342 39.816 188.688 39.816Z" fill="url(#paint2_linear_458_65)"/>
<path d="M231.376 45.512C227.877 45.512 224.741 44.616 221.968 42.824C219.237 41.032 217.061 38.4293 215.44 35.016C213.861 31.6027 213.072 27.464 213.072 22.6C213.072 17.736 213.861 13.5973 215.44 10.184C217.061 6.77065 219.237 4.16799 221.968 2.37599C224.741 0.583988 227.877 -0.312012 231.376 -0.312012C234.832 -0.312012 237.947 0.583988 240.72 2.37599C243.493 4.16799 245.669 6.77065 247.248 10.184C248.827 13.5973 249.616 17.736 249.616 22.6C249.616 27.464 248.827 31.6027 247.248 35.016C245.669 38.4293 243.493 41.032 240.72 42.824C237.947 44.616 234.832 45.512 231.376 45.512ZM231.376 39.816C233.723 39.816 235.771 39.176 237.52 37.896C239.312 36.616 240.699 34.696 241.68 32.136C242.704 29.576 243.216 26.3973 243.216 22.6C243.216 18.8027 242.704 15.624 241.68 13.064C240.699 10.504 239.312 8.58399 237.52 7.30399C235.771 6.02399 233.723 5.38399 231.376 5.38399C229.029 5.38399 226.96 6.02399 225.168 7.30399C223.376 8.58399 221.968 10.504 220.944 13.064C219.963 15.624 219.472 18.8027 219.472 22.6C219.472 26.3973 219.963 29.576 220.944 32.136C221.968 34.696 223.376 36.616 225.168 37.896C226.96 39.176 229.029 39.816 231.376 39.816Z" fill="url(#paint3_linear_458_65)"/>
</g>
<defs>
<linearGradient id="paint0_linear_458_65" x1="134.02" y1="4.77954" x2="133.365" y2="19.2837" gradientUnits="userSpaceOnUse">
<stop stop-color="#FFDB11"/>
<stop offset="1" stop-color="#EFAC00"/>
</linearGradient>
<linearGradient id="paint1_linear_458_65" x1="134.02" y1="4.77954" x2="133.365" y2="19.2837" gradientUnits="userSpaceOnUse">
<stop stop-color="#FFDB11"/>
<stop offset="1" stop-color="#EFAC00"/>
</linearGradient>
<linearGradient id="paint2_linear_458_65" x1="134.02" y1="4.77954" x2="133.365" y2="19.2837" gradientUnits="userSpaceOnUse">
<stop stop-color="#FFDB11"/>
<stop offset="1" stop-color="#EFAC00"/>
</linearGradient>
<linearGradient id="paint3_linear_458_65" x1="134.02" y1="4.77954" x2="133.365" y2="19.2837" gradientUnits="userSpaceOnUse">
<stop stop-color="#FFDB11"/>
<stop offset="1" stop-color="#EFAC00"/>
</linearGradient>
<clipPath id="clip0_458_65">
<rect width="321" height="72" fill="white"/>
</clipPath>
</defs>
</svg>
