<svg width="375" height="373" viewBox="0 0 375 373" fill="none" xmlns="http://www.w3.org/2000/svg">
<mask id="mask0_115_87" style="mask-type:alpha" maskUnits="userSpaceOnUse" x="-1" y="0" width="589" height="373">
<path d="M525.849 372.885L-0.000722756 139.391L61.8933 -3.04257e-05L587.743 233.493L525.849 372.885Z" fill="#D9D9D9"/>
</mask>
<g mask="url(#mask0_115_87)">
<path d="M-943.105 1722.93C-1073.45 1669.21 -1196.14 1601.72 -1307.07 1522.74C-1321.22 1512.83 -1334.67 1502.34 -1348.44 1492.08L-1368.97 1476.52C-1375.83 1471.33 -1382.01 1465.89 -1388.88 1460.44L-1428.24 1427.87L-1465.85 1393.99C-1472.11 1388.31 -1478.59 1382.63 -1484.53 1376.89L-1502.37 1359.3C-1514.12 1347.5 -1526.23 1335.86 -1537.59 1323.82C-1559.92 1299.51 -1582.67 1275.34 -1602.92 1250.06C-1611.25 1233.87 -1618.72 1221.54 -1622.8 1210.55C-1630.44 1191.99 -1635.74 1173.21 -1638.61 1154.49C-1640.69 1138.2 -1641.24 1123.57 -1643.19 1107.38C-1645.58 1095.17 -1649.68 1082.96 -1655.41 1070.98C-1661.71 1056.64 -1670.61 1040.74 -1677.83 1024.24C-1685.04 1007.75 -1693.33 991.321 -1698.57 975.807C-1700.5 969.907 -1702.03 964.321 -1703.26 958.975C-1710.78 945.194 -1718.13 933.414 -1723.13 925.958C-1730.26 916.033 -1734.57 914.103 -1731.85 926.282C-1730.39 932.474 -1728.98 939.234 -1726.79 946.199L-1719.97 967.611C-1715.16 982.039 -1711.05 996.501 -1706.75 1008.63C-1703.27 1018.82 -1707.92 1017.01 -1715.95 1008.31C-1727.11 994.927 -1736.38 980.816 -1743.55 966.285C-1782.59 890.344 -1814.65 811.373 -1832.69 732.891C-1893.21 472.275 -1843.29 213.295 -1695.36 3.85918C-1684.48 -10.8054 -1673.18 -25.6148 -1661.16 -39.393C-1649.13 -53.1712 -1635.92 -65.7141 -1623.79 -77.3448C-1611.65 -88.9754 -1598.74 -98.4185 -1587.85 -106.715C-1579.09 -113.765 -1569.39 -120.062 -1558.85 -125.531C-1544.14 -133.13 -1526.33 -143.045 -1515.11 -147.34C-1502.96 -158.12 -1490.44 -168.667 -1477.55 -178.979C-1414.61 -225.413 -1344.67 -268.547 -1269.5 -299.838C-1163.43 -343.384 -1048.05 -378.095 -927.536 -395.642C-897.716 -400.617 -867.182 -403.516 -837.061 -406.398C-822.151 -408.106 -806.671 -408.379 -791.563 -409.297C-776.456 -410.215 -761.62 -410.896 -746.294 -410.932C-715.905 -410.931 -686.105 -411.19 -656.189 -409.045C-641.253 -408.129 -626.59 -407.397 -611.886 -406.06C-597.181 -404.722 -582.521 -402.853 -568.113 -401.076C-567.855 -400.999 -567.602 -400.906 -567.357 -400.797C-563.789 -400.872 -560.256 -401.002 -556.688 -401.076L-512.456 -400.605C-505.077 -400.496 -497.689 -400.552 -490.255 -400.296L-467.955 -399.234L-423.308 -397.091L-378.505 -393.204L-356.088 -391.297C-348.567 -390.544 -341.051 -389.499 -333.575 -388.637L-288.456 -383.115C-167.434 -366.053 -46.8889 -337.643 70.4775 -298.523C99.6622 -288.087 129.293 -278.456 157.987 -266.683L201.305 -249.553L243.92 -230.996L262.46 -222.887C255.112 -227.034 247.765 -231.18 240.388 -235.253L198.606 -256.833L177.589 -267.67C170.55 -271.154 163.356 -274.401 156.221 -277.793L113.144 -297.912C98.5431 -304.736 83.9043 -310.478 69.2239 -316.825C54.5435 -323.172 39.6766 -329.63 24.5651 -335.208L-20.6492 -352.236C-35.6406 -358.108 -50.9624 -363.173 -66.5511 -368.295C-82.1398 -373.417 -97.5773 -378.483 -113.05 -383.605C-128.627 -388.048 -144.542 -392.657 -160.306 -397.211L-184.112 -403.933C-192.039 -406.1 -199.899 -407.863 -208.102 -409.921C-223.95 -413.705 -240.331 -417.601 -256.385 -421.588C-272.44 -425.574 -288.868 -428.223 -305.258 -431.532C-337.953 -438.498 -370.955 -442.879 -404.204 -448.068C-423.038 -450.508 -441.938 -452.93 -460.49 -455.35C-469.799 -456.552 -479.068 -457.991 -487.974 -459.044C-496.88 -460.096 -506.052 -461.205 -514.908 -462.239C-677.956 -483.966 -850.5 -475.04 -1011.8 -441.211C-1083.41 -426.167 -1152.64 -406.953 -1218.98 -383.713C-1230.8 -379.641 -1242.76 -376.084 -1254.56 -372.893L-1288.85 -362.691C-1294.33 -361.048 -1298.64 -362.72 -1299.66 -364.615C-1299.51 -366.442 -1298.85 -368.154 -1297.73 -369.637C-1296.61 -371.121 -1295.06 -372.344 -1293.17 -373.227C-1187.16 -429.037 -1066.44 -468.559 -936.06 -490.134C-719.909 -525.642 -485.335 -524.323 -253.344 -482.332C-244.952 -480.72 -236.524 -480.159 -228.391 -480.67C-216.765 -482.999 -225.136 -487.903 -249.262 -493.561C-320.444 -509.749 -392.097 -522.236 -463.718 -530.934L-490.808 -534.314C-499.815 -535.403 -508.785 -536.016 -517.831 -536.867L-572.007 -541.515C-590.023 -542.557 -608.028 -543.341 -626.134 -544.163L-653.264 -545.322L-680.192 -545.562C-752.935 -546.494 -824.694 -543.186 -894.89 -535.665C-966.239 -527.8 -1035.84 -515.793 -1103.15 -499.734C-1177.07 -481.558 -1251.43 -457.474 -1316.53 -437.604C-1423.74 -403.596 -1519.37 -354.353 -1599.36 -291.967C-1668.4 -238.717 -1732.94 -181.023 -1785.54 -116.096C-1836.71 -53.0402 -1879.28 14.7304 -1912.68 86.3389C-1946.25 157.655 -1970.37 232.575 -1984.7 310.089C-2013.72 465.609 -2003.79 629.341 -1955.42 792.892C-1926.43 892.387 -1880.95 990.775 -1820.18 1085.43C-1775.91 1155.76 -1725.59 1224.36 -1669.63 1290.68C-1665.02 1296.13 -1658.32 1308.52 -1659.65 1308.79C-1662.61 1309.7 -1666.11 1309.63 -1669.46 1308.6C-1672.81 1307.57 -1675.76 1305.64 -1677.72 1303.21C-1693.49 1287.48 -1710.17 1271.45 -1725.98 1254.57C-1741.79 1237.68 -1756.6 1219.9 -1770.75 1201.52C-1886.01 1046.54 -1968.58 877.736 -2004.98 707.963C-2043.18 528.484 -2035.52 351.296 -1982.46 186.905C-1929.39 22.5134 -1832 -125.736 -1696.06 -249.054C-1684.67 -259.275 -1672.71 -269.071 -1661.01 -279.089L-1643.3 -293.978C-1637.25 -298.83 -1630.9 -303.442 -1624.71 -308.201L-1587.08 -336.481L-1547.63 -362.953C-1540.97 -367.325 -1534.44 -371.79 -1527.65 -376.032L-1506.99 -388.392C-1493.09 -396.546 -1479.43 -404.958 -1465.26 -412.798C-1436.35 -427.981 -1407.89 -443.662 -1377.48 -457.149C-1321.77 -483.122 -1263.35 -505.982 -1202.57 -525.595L-1156.32 -539.39L-1133.18 -546.16L-1109.46 -552.119L-1061.96 -563.854L-1013.5 -573.84C-883.51 -599.507 -746.897 -611.569 -606.841 -609.747C-510.222 -608.619 -412.258 -600.014 -314.348 -584.052C28.9199 -526.629 360.446 -391.161 636.603 -195.476C747.669 -117.136 849.015 -30.5828 938.659 62.493C955.201 79.8594 973.542 98.3542 990.303 116.603C1007.06 134.851 1024.79 151.728 1039.24 166.129C1054.58 181.196 1070.11 196.503 1083.96 212.663C1097.81 228.824 1111.14 245.386 1123.97 262.184C1136.8 278.982 1148.01 296.616 1159.58 314.087C1171.15 331.558 1181.06 349.681 1191.66 367.68C1305.51 568.823 1356.91 782.38 1335.39 973.49L1328.6 995.276C1326.44 1002.53 1324.02 1009.7 1321.19 1016.75L1304.97 1058.71C1299.34 1072.45 1292.61 1085.74 1286.42 1098.85L1276.81 1118.2C1273.62 1124.57 1269.7 1130.71 1266.21 1136.84C1258.29 1150.2 1247.97 1157.56 1240.43 1157.27C1225.13 1156.67 1209.57 1152.4 1195.86 1145.04C1185.74 1139.87 1178.98 1124.68 1175.94 1103.94C1174.67 1093.61 1172.72 1081.67 1172.61 1068.64C1172.46 1062.22 1172.23 1055.42 1172.79 1048.67L1173.37 1038.22L1173.73 1027.43C1174.41 1009.38 1176.57 991.365 1176.89 973.053C1177.2 954.74 1177.58 936.575 1176.05 918.511C1174.53 900.446 1172.58 881.297 1169.73 863.208C1168.66 857.752 1167.52 852.48 1166.33 847.318C1167.46 858.701 1168.81 870.25 1169.63 881.686C1173.55 930.193 1173.55 978.293 1169.63 1025.7C1166.98 1049.27 1165.17 1073.06 1160.48 1096.25C1158.33 1107.86 1156.7 1119.61 1154.07 1131.13L1145.75 1165.55C1132.71 1216.77 1114.21 1266.35 1090.42 1313.81L1081.7 1331.38L1071.81 1348.44C1065.1 1359.71 1058.63 1371.11 1051.5 1382.14C1036.29 1403.82 1021.9 1426.04 1003.86 1445.99C984.509 1470.27 962.984 1493.49 944.019 1516.26C923.432 1538.18 905.94 1559.77 889.406 1577.75C881.208 1586.99 872.99 1596.57 863.548 1605.74C854.106 1614.9 843.808 1623.75 832.872 1633.17C821.506 1642.93 809.405 1652.15 796.615 1660.78C783.353 1669.92 769.76 1679.88 753.614 1688.85C698.813 1722.64 634.077 1751.67 574.962 1778.3C429.878 1842.56 264.654 1881.33 88.6246 1892.42C-86.3372 1903.45 -267.835 1890.63 -448.235 1854.49C-515.596 1839.55 -582.425 1821.34 -648.304 1800L-697.549 1783.46C-713.898 1777.93 -729.988 1771.49 -746.208 1765.5L-752.253 1763.27C-737.587 1774.46 -744.341 1779.05 -772.492 1774.02C-799.466 1769.36 -826.293 1762.95 -852.681 1754.87C-866.863 1750.56 -881.56 1745.81 -896.671 1740.66C-911.781 1735.5 -927.232 1729.33 -943.105 1722.93ZM552.442 80.5148C548.786 76.2775 544.777 72.2034 540.447 68.3266C525.18 56.1963 519.253 54.8096 526.903 63.8752C531.584 68.2206 536.624 72.3372 541.979 76.1886C545.093 77.5065 548.674 78.9551 552.442 80.5148ZM894.412 486.694C900.812 494.708 907.131 502.776 913.043 510.989C911.531 507.605 909.988 504.295 908.39 500.837L899.317 483.359C893.101 471.787 887.342 460.088 880.055 449.005C872.252 437.058 866.243 434.882 866.117 441.414C874.566 454.613 882.608 467.956 890.339 481.352L894.412 486.694ZM1030.72 1235.22C1036.56 1230.36 1040.94 1224.49 1043.61 1217.92C1101.05 1089.84 1115.57 940.844 1089.69 793.344C1079.38 736.647 1063.83 679.87 1043.18 623.466C1029.8 631.182 1013.55 631.636 991.641 609.546C980.433 597.166 970.186 584.352 960.971 571.191C955.483 563.641 949.914 555.723 944.411 548.209C938.909 540.695 932.566 533.251 926.828 526.452C924.644 523.931 921.841 521.728 918.625 520.008C957.08 588.925 983.418 660.079 996.828 731.273C997.832 736.819 998.43 742.348 998.622 747.834C1017.81 827.373 1025.53 906.74 1021.62 984.394C1019.94 1014.39 1016.39 1044.12 1011.45 1073.42C1012.95 1080.51 1014.75 1087.29 1015.88 1095C1017.41 1104 1018.74 1112.93 1019.2 1122.29L1025.47 1098.5C1029.9 1080.06 1032.94 1061.19 1036.51 1042.44L1039.99 1013.86C1041 1004.33 1042.61 994.882 1042.79 985.378C1043.58 966.058 1045.73 946.947 1045.08 927.474C1045.13 850.88 1036.88 773.253 1020.41 695.401C1018.16 683.481 1014.47 665.46 1016.1 667.157C1024.65 676.387 1030.63 686.685 1033.58 697.227C1076.56 839.144 1084.47 981.316 1056.87 1115.7C1052.73 1134.71 1049.34 1153.45 1044.21 1171.33L1037.32 1198.31C1034.81 1207.13 1031.82 1215.68 1029.17 1224.27C1026.81 1231.58 1028.13 1236.29 1030.46 1235.13L1030.72 1235.22ZM15.4594 1654.3C109.055 1649.09 198.728 1633.05 281.704 1606.66C364.55 1580.7 441.311 1546.47 510.381 1504.67L540.638 1485.9C550.554 1479.4 560.016 1472.31 569.77 1465.49L584.423 1455.21L598.139 1444.25L625.476 1422.42C642.247 1406.97 660.158 1392.71 674.952 1377.42C682.525 1369.84 690.597 1362.74 697.682 1355.36C704.768 1347.98 711.657 1340.66 718.572 1333.55C734.686 1317.02 749.359 1299.63 763.034 1281.69C767.809 1267.22 767.549 1254.55 762.202 1244.4C759.235 1238.62 759.651 1231.1 761.786 1222.36C764.075 1212.21 767.398 1202.35 771.726 1192.88L776.86 1181.49L781.365 1170.5C784.219 1163.54 786.892 1157.02 790.09 1151.2C795.171 1140.76 800.988 1130.64 807.518 1120.86C812.941 1113.16 819.694 1106.19 827.624 1100.11C834.58 1094.57 842.818 1090.08 852.04 1086.81C854.826 1085.82 857.25 1087.26 860.057 1086.36C863.537 1073.77 866.881 1061.08 869.857 1048.31C877.211 1012.52 881.52 975.977 882.756 938.909C884.911 877.133 879.268 814.25 865.907 751.136C854.855 699.022 839.19 645.711 831.491 610.311C819.891 560.977 800.682 511.86 774.299 464.073C743.691 408.946 705.889 355.562 661.578 304.885C653.251 294.642 644.034 284.871 634.767 275.082C625.499 265.293 616.785 255.286 606.934 245.788L577.715 217.332L570.376 210.194L562.635 203.33L547.203 189.621C527.105 171.026 504.932 153.816 483.552 136.224C472.757 127.474 461.068 119.489 450.032 110.903C438.995 102.316 427.849 94.2798 415.893 86.2393C363.609 49.4026 308.707 15.0438 251.588 -16.5863C223.724 -32.6497 194.491 -47.0682 165.799 -61.9611C151.037 -68.9569 136.239 -76.008 121.406 -83.1143C106.608 -90.306 91.1731 -96.5098 75.973 -103.428L57.9019 -111.407L39.3942 -118.745C27.0693 -123.576 14.6921 -128.468 2.26291 -133.422L-35.6856 -146.671L-54.7252 -153.278L-74.0502 -159.188C-86.9435 -163.105 -99.8753 -167.021 -112.846 -170.937C-125.906 -174.353 -138.983 -177.774 -152.076 -181.202L-171.782 -186.325L-191.652 -190.624L-231.442 -199.24C-338.325 -219.94 -445.726 -228.506 -550.146 -224.658C-565.43 -224.016 -582.201 -224.134 -598.037 -222.853C-612.464 -221.895 -627.311 -221.471 -641.185 -220.731C-655.06 -219.991 -667.897 -218.952 -678.908 -218.546C-689.92 -218.141 -698.808 -217.964 -704.686 -217.772C-710.564 -217.58 -713.203 -218.217 -711.675 -219.256C-703.77 -225.331 -693.627 -229.436 -682.193 -231.188C-576.424 -254.348 -427.199 -261.002 -263.771 -238.502C-113.771 -217.951 35.1221 -176.94 175.889 -117.405C154.995 -127.269 133.704 -136.731 112.072 -145.644C88.75 -154.253 65.7203 -164.99 43.1112 -174.348L-1.99051 -192.641C-16.8317 -198.879 -32.5156 -203.91 -47.7889 -209.801C-55.4958 -212.646 -63.2531 -215.51 -71.0104 -218.373C-78.7676 -221.237 -86.6847 -223.569 -94.5471 -226.176C-110.382 -231.263 -126.314 -236.68 -142.556 -241.621C-129.356 -242.273 -121.902 -244.329 -110.044 -242.271C-27.3995 -228.077 53.804 -201.824 129.096 -164.958C151.245 -153.685 174.101 -143.5 197.503 -134.476C219.117 -125.858 241.156 -118.201 263.497 -111.548C279.564 -106.461 296.296 -100.875 312.429 -95.3833C328.562 -89.8917 343.302 -83.6909 356.636 -78.7267C441.424 -28.7283 520.432 27.5946 592.202 89.2035C606.8 102.144 620.314 115.76 632.628 129.936C641.82 141.243 649.304 153.176 654.897 165.442C657.507 171.382 660.677 177.656 663.826 183.837L672.201 202.026C695.174 227.755 704.056 227.027 715.518 232.313C725.17 236.905 734.378 242.169 743.003 248.025C750.317 252.96 758.564 258.873 766.161 264.672C772.74 270.021 779.764 275.025 787.167 279.637C793.961 283.579 800.058 279.883 796.675 272.857C793.292 265.831 789.226 257.076 784.865 249.182L771.445 225.335C766.66 217.201 761.695 209.084 756.416 200.599C751.138 192.114 744.854 184.101 738.584 175.629C733.365 168.557 727.197 160.967 720.39 153.098L698.45 129.943C691.155 122.274 684.082 114.771 677.871 107.712C676.14 105.851 674.445 104.044 672.851 102.275C571.729 12.8038 456.323 -66.4277 330.576 -132.712C221.625 -190.118 106.162 -237.645 -13.0524 -274.154C-72.5845 -292.321 -132.816 -307.894 -193.435 -320.794L-216.195 -325.823C-223.799 -327.364 -231.442 -328.667 -239.105 -330.062L-271.698 -336.147C-267.984 -334.313 -264.372 -332.515 -260.875 -330.718C-257.378 -328.921 -256.997 -325.323 -261.296 -325.307C-272.57 -325.251 -292.548 -324.192 -299.781 -326.356C-369.409 -344.805 -441.292 -359.026 -523.32 -361.094C-535.169 -361.757 -547.014 -362.291 -558.898 -363.009C-572.749 -362.893 -586.524 -362.537 -599.805 -362.253C-664.638 -360.515 -728.444 -355.269 -790.785 -346.552C-853.026 -338.146 -913.62 -326.157 -972.117 -310.674L-994.089 -305.037C-1001.35 -303.035 -1008.39 -300.702 -1015.58 -298.59C-1029.8 -294.181 -1044.21 -290.012 -1058.34 -285.401C-1085.67 -275.33 -1114.17 -266.201 -1140.54 -254.639C-1168.04 -244.166 -1193.28 -231.553 -1219.09 -219.364C-1231.95 -213.187 -1244.04 -206.181 -1256.52 -199.654L-1275.07 -189.632C-1281.26 -186.267 -1286.99 -182.478 -1292.96 -178.947C-1305.73 -171.008 -1318.95 -163.658 -1331.67 -156.251L-1367.66 -134.111C-1376.71 -128.594 -1383.2 -127.194 -1384.61 -128.431C-1386.01 -129.667 -1380.98 -135.863 -1373.56 -141.223C-1327.76 -177.892 -1277.72 -211.191 -1223.87 -240.821C-1169.67 -270.664 -1111.65 -296.561 -1050.37 -318.265L-1027.14 -326.557C-1019.46 -329.291 -1011.7 -331.951 -1003.7 -334.224L-969.861 -344.043C-980.294 -341.653 -990.787 -339.116 -1001.15 -336.616L-1034.01 -327.196C-1044.85 -323.945 -1056 -321.228 -1066.57 -317.793C-1077.14 -314.358 -1087.79 -311.161 -1098.42 -308.166C-1119.95 -302.453 -1140.35 -296.148 -1161.21 -291.789C-1168.98 -289.859 -1176.4 -287.378 -1183.39 -284.373C-1190.29 -281.37 -1196.75 -277.872 -1202.7 -273.915C-1216.12 -263.814 -1231.64 -254.823 -1246.81 -244.694C-1261.98 -234.564 -1279.08 -225.821 -1294.69 -215.345C-1326.87 -196.182 -1356.48 -174.673 -1383.23 -151.032C-1387.98 -146.376 -1392.69 -142.086 -1397.64 -138.091C-1382.22 -127.171 -1376.2 -108.755 -1383.08 -79.959C-1386.56 -65.3871 -1380.78 -57.2664 -1369.52 -54.4593C-1343.64 -47.8561 -1331.45 -44.6224 -1346.3 -21.5541C-1349.84 -15.6072 -1355.02 -8.36542 -1362.09 0.53712L-1373.91 15.2339L-1387.64 33.4443L-1404.27 54.7607L-1422.15 80.5487L-1432.14 94.8691L-1441.78 110.751L-1452.04 127.712L-1457.48 136.586L-1462.4 146.031C-1464.39 151.427 -1465.89 156.987 -1466.9 162.672C-1466.64 169.389 -1466.28 176.144 -1463.13 178.655C-1459.65 181.671 -1457.23 185.28 -1456.19 189.02C-1454.33 194.59 -1453.39 200.198 -1453.4 205.696C-1453.03 218.947 -1456.89 235.995 -1461.47 259.058C-1463.91 270.515 -1467.84 282.937 -1470.75 297.384C-1473.66 311.83 -1478.61 327.166 -1481.88 344.767C-1483.72 353.493 -1486.08 362.491 -1487.96 372.043L-1493.3 402.167C-1495.66 412.469 -1496.34 423.733 -1498.2 435.065L-1500.65 452.504C-1501.52 458.427 -1501.73 464.757 -1502.36 470.81C-1508.68 540.549 -1499.94 606.36 -1487.05 666.447C-1486.16 678.416 -1483.61 689.733 -1482.07 700.549C-1480.53 711.365 -1478.86 721.723 -1476.28 731.7L-1469.98 760.596C-1467.95 769.781 -1465.05 778.989 -1462.86 787.937C-1449.19 841.626 -1428.91 895.077 -1402.32 947.514C-1375.83 999.755 -1340.53 1050.1 -1297.48 1097.05C-1295.03 1099.72 -1291.65 1103.92 -1287.89 1109.02L-1274.57 1125.62C-1265.18 1137.52 -1256.3 1149.95 -1250.67 1157.3C-1215.82 1205.97 -1166.66 1256.08 -1102.6 1306.51C-971.177 1409.35 -819.315 1494.22 -655.765 1556.23L-650.328 1542.97C-582.045 1574.46 -505.59 1598.88 -427.051 1618.52C-381.305 1630 -334.797 1639.92 -287.818 1649.25C-264.711 1651.87 -241.69 1654 -219.088 1655.6C-139.165 1661.53 -55.5682 1658.36 15.4594 1654.3Z" fill="#FFDB11"/>
<path d="M350.213 246.571C336.985 233.688 326.226 219.541 318.372 204.706C312.355 192.363 311.728 182.01 318.269 176.665C322.112 173.234 346.681 185.593 359.022 196.938C371.264 208.789 382.525 221.178 392.714 234.005C400.664 244.828 407.348 256.054 412.669 267.518C417.051 277.908 415.087 284.394 403.515 281.641C394.282 278.897 385.575 274.689 378.006 269.314C367.93 262.364 358.617 254.744 350.213 246.571Z" fill="#FFDB11"/>
<path d="M161.782 110.23C156.546 107.158 151.349 103.848 146.445 100.815C133.104 92.4742 113.186 82.2114 118.052 77.1335C119.332 75.7083 137.798 84.4226 153.06 90.0568C158.811 93.5713 165.679 97.3295 172.675 101.768C179.671 106.206 186.788 111.195 193.88 115.964C197.182 118.237 200.279 123.555 198.603 123.401C191.272 123.228 183.781 121.621 176.799 118.725C171.571 116.186 166.548 113.345 161.782 110.23Z" fill="#FFDB11"/>
</g>
</svg>
