<svg width="144" height="65" viewBox="0 0 144 65" fill="none" xmlns="http://www.w3.org/2000/svg">
<g clip-path="url(#clip0_115_580)">
<path d="M131.68 14.3729H140.857L140.391 15.796H130.709C129.795 15.796 129.134 15.7177 128.725 15.5612C128.316 15.4047 128.111 15.1757 128.11 14.8742C128.104 14.7663 128.126 14.6587 128.173 14.5616L130.087 8.60448C130.212 8.2204 130.536 7.91841 131.059 7.69852C131.582 7.47863 132.374 7.36916 133.434 7.37012H143.125L142.674 8.79171H133.497C133.237 8.79171 133.082 8.83348 133.031 8.91702L131.31 14.2635C131.31 14.3369 131.439 14.3729 131.699 14.3729M117.473 14.3729H123.209C123.495 14.3729 123.656 14.3312 123.676 14.2491L125.901 7.37012H128.913L126.594 14.5616C126.459 14.9774 126.135 15.2875 125.62 15.4921C125.106 15.6966 124.315 15.7979 123.247 15.796H116.508C115.594 15.796 114.933 15.7177 114.524 15.5612C114.114 15.4047 113.909 15.1757 113.908 14.8742C113.903 14.7663 113.924 14.6587 113.971 14.5616L116.29 7.37012H119.31L117.084 14.2635C117.066 14.3369 117.195 14.3729 117.459 14.3729H117.473ZM110.16 10.7462C110.447 10.7462 110.61 10.7001 110.642 10.6022L111.187 8.89685C111.187 8.82484 111.058 8.78741 110.798 8.78741H104.633L103.994 10.7419L110.16 10.7462ZM109.708 12.1534H103.543L102.826 14.3729H108.992C109.278 14.3729 109.439 14.3312 109.459 14.2491L110.097 12.2629C110.077 12.1894 109.948 12.1534 109.688 12.1534H109.708ZM102.066 7.37012H111.716C112.649 7.37012 113.318 7.45848 113.723 7.63515C114.122 7.81231 114.323 8.05285 114.323 8.35531C114.322 8.45649 114.306 8.55695 114.275 8.65345L113.731 10.3573C113.644 10.6354 113.479 10.8824 113.256 11.0689C113.061 11.2287 112.85 11.3673 112.626 11.4822C112.748 11.6026 112.843 11.7465 112.908 11.9053C112.972 12.064 113.003 12.2342 112.999 12.4055C113.009 12.5386 112.988 12.6723 112.938 12.7958L112.393 14.5155C112.258 14.9217 111.923 15.2371 111.389 15.4618C110.855 15.6865 110.058 15.7984 108.999 15.7974H99.3501L102.066 7.37012ZM90.3624 8.91702L89.7702 10.7462H95.936C96.2228 10.7462 96.3862 10.7001 96.4178 10.6022L96.9626 8.89685C96.9626 8.82484 96.8336 8.78741 96.574 8.78741H90.8299C90.5503 8.79173 90.394 8.83348 90.3424 8.91702H90.3624ZM85.1173 15.796L87.4359 8.60448C87.5601 8.2204 87.8847 7.91841 88.4095 7.69852C88.9343 7.47863 89.7253 7.36916 90.7826 7.37012H97.5218C98.4558 7.37012 99.1249 7.44838 99.5293 7.6049C99.9337 7.76141 100.133 7.99042 100.127 8.29193C100.133 8.39968 100.112 8.50725 100.066 8.60448L99.3185 10.9191C99.1837 11.3358 98.8621 11.6455 98.3535 11.8481C97.845 12.0507 97.0563 12.1525 95.9876 12.1534H89.3272L88.1442 15.796H85.1173ZM74.7932 14.3729H83.9701L83.5041 15.796H73.8225C72.9105 15.796 72.2452 15.7182 71.8394 15.5612C71.4336 15.4042 71.2243 15.1766 71.2243 14.8742C71.2181 14.7664 71.2393 14.6589 71.2859 14.5616L73.2002 8.60448C73.3254 8.2204 73.6499 7.91841 74.1738 7.69852C74.6976 7.47863 75.4887 7.36916 76.5469 7.37012H86.2271L85.7769 8.79171H76.5999C76.3404 8.79171 76.1841 8.83348 76.1325 8.91702L75.5403 10.7462H82.5291L82.0774 12.1534H75.0901L74.4047 14.2635C74.3889 14.3369 74.5179 14.3729 74.7775 14.3729H74.7932ZM60.5676 14.3729H69.7445L69.2771 15.796H59.5868C58.6749 15.796 58.0095 15.7182 57.6037 15.5612C57.1979 15.4042 56.9886 15.1766 56.9886 14.8742C56.9824 14.7664 57.0036 14.6589 57.0503 14.5616L58.9645 8.60448C59.0897 8.2204 59.4143 7.91841 59.9381 7.69852C60.462 7.47863 61.253 7.36916 62.3112 7.37012H71.9914L71.5412 8.79171H62.3643C62.1047 8.79171 61.9484 8.83348 61.8968 8.91702L60.1761 14.2635C60.1632 14.3369 60.2937 14.3729 60.5518 14.3729H60.5676Z" fill="#1A1A18"/>
<path d="M106.032 30.7148H109.026L107.084 36.7296H94.753C93.0108 36.7296 91.1941 37.4497 89.6684 38.602C88.1427 39.7542 86.9139 41.3515 86.349 43.1015L85.3452 46.2054C84.7803 47.9554 84.981 49.5483 85.7582 50.7049C86.5354 51.8615 87.8904 52.5773 89.6297 52.5773H101.961L100.02 58.5921H87.6882C84.2942 58.5921 81.6659 57.1993 80.1502 54.9553C78.6346 52.7113 78.2561 49.6132 79.3573 46.2039L80.361 43.1001C81.4623 39.6894 83.8497 36.5927 86.8135 34.3487C89.7774 32.1047 93.3048 30.7119 96.7074 30.7119L106.032 30.7148Z" fill="#1A1A18"/>
<path d="M65.4457 36.7295H59.0993L53.9803 52.573H66.6702L69.7316 43.0957C70.2965 41.3457 70.0958 39.7527 69.3186 38.5962C68.5414 37.4396 67.1864 36.7237 65.4471 36.7237M58.0511 30.709H67.39C70.784 30.709 73.4124 32.1018 74.928 34.3458C76.4436 36.5898 76.8222 39.6865 75.7209 43.0971L72.661 52.5744H76.792L74.8506 58.5892H41.9198L43.8627 52.5744H47.9938L55.0557 30.709H58.0511Z" fill="#1A1A18"/>
<path d="M112.199 36.7296H109.205L111.148 30.7148H120.427H126.415H135.695L133.752 36.7296H124.472L117.41 58.595H111.423L118.485 36.7296H112.199Z" fill="#1A1A18"/>
<path fill-rule="evenodd" clip-rule="evenodd" d="M35.9964 26.6417L28.2147 35.7401C31.276 39.616 33.7925 43.9096 35.876 48.3919L42.8691 26.6431L35.9964 26.6417ZM47.0073 13.771L40.9663 20.8286H44.7374L47.0073 13.771ZM24.5999 31.6309L28.87 26.6388H18.794C20.8659 28.1365 22.8081 29.8075 24.5999 31.6338V31.6309ZM20.562 36.384C16.2847 31.919 11.2561 28.5645 5.41869 26.4775L4.00344 25.9719C2.78176 25.5398 1.55434 24.5734 1.73932 23.1201C1.93146 21.602 3.49584 20.83 4.88385 20.83H33.8384L49.5696 2.44149C49.6032 2.40223 49.6401 2.36608 49.6801 2.33346C50.4945 1.27771 51.5341 0.697266 52.9106 0.697266C54.7904 0.697266 56.2358 2.45157 55.9218 4.31966C55.9163 4.35836 55.9072 4.39645 55.8945 4.43343L50.6221 20.83H143.186C143.314 20.8302 143.44 20.8607 143.554 20.9192C143.669 20.9778 143.768 21.0625 143.843 21.1667C143.919 21.2709 143.968 21.3914 143.989 21.5186C144.009 21.6459 143.999 21.7761 143.96 21.8987L142.611 26.0756C142.559 26.2407 142.456 26.3848 142.317 26.4866C142.178 26.5883 142.01 26.6422 141.838 26.6402H48.7538L36.8266 63.7341C36.7742 63.8957 36.6729 64.0369 36.5367 64.1379C36.4006 64.2389 36.2365 64.2948 36.0673 64.2976C35.8981 64.3005 35.7322 64.2502 35.5928 64.1538C35.4533 64.0575 35.3473 63.9198 35.2895 63.76L33.3021 58.2191C31.0595 51.9682 28.0957 45.8454 24.0837 40.5335L3.49441 63.5598C3.48465 63.572 3.47411 63.5836 3.46286 63.5944C3.1701 63.8743 2.80986 64.0728 2.41755 64.1705C1.70061 64.3606 0.80586 64.2627 0.312602 63.6448C-0.355592 62.8051 0.169213 61.7493 0.742769 61.0364C4.11672 56.884 7.45625 52.6984 10.8073 48.5258C14.0603 44.4804 17.3119 40.4341 20.562 36.3868V36.384Z" fill="#CE6D00"/>
</g>
<defs>
<clipPath id="clip0_115_580">
<rect width="144" height="63.6" fill="white" transform="translate(0 0.700195)"/>
</clipPath>
</defs>
</svg>
