<svg width="1600" height="1621" viewBox="0 0 1600 1621" fill="none" xmlns="http://www.w3.org/2000/svg">
<g opacity="0.07" clip-path="url(#clip0_422_43)">
<path fill-rule="evenodd" clip-rule="evenodd" d="M1433.98 981.919L1398.1 1023.98C1412.22 1041.89 1423.82 1061.74 1433.43 1082.46L1465.67 981.926L1433.98 981.919ZM1484.76 922.423L1456.9 955.047H1474.29L1484.76 922.423ZM1381.43 1004.98L1401.12 981.906H1354.66C1364.22 988.829 1373.17 996.554 1381.43 1005V1004.98ZM1362.81 1026.95C1343.09 1006.31 1319.9 990.808 1292.99 981.16L1286.46 978.823C1280.83 976.826 1275.17 972.358 1276.02 965.64C1276.91 958.623 1284.12 955.054 1290.52 955.054H1424.03L1496.57 870.05C1496.73 869.869 1496.9 869.702 1497.08 869.551C1500.84 864.671 1505.63 861.988 1511.98 861.988C1520.65 861.988 1527.31 870.097 1525.86 878.733C1525.84 878.911 1525.79 879.088 1525.74 879.259L1501.42 955.054H1928.25C1928.84 955.055 1929.42 955.196 1929.95 955.467C1930.47 955.737 1930.93 956.129 1931.28 956.61C1931.62 957.092 1931.86 957.649 1931.95 958.237C1932.04 958.825 1932 959.427 1931.82 959.994L1925.59 979.303C1925.36 980.066 1924.88 980.732 1924.24 981.202C1923.6 981.672 1922.82 981.922 1922.03 981.913H1492.81L1437.81 1153.38C1437.57 1154.13 1437.1 1154.78 1436.48 1155.25C1435.85 1155.72 1435.09 1155.98 1434.31 1155.99C1433.53 1156 1432.77 1155.77 1432.12 1155.32C1431.48 1154.88 1430.99 1154.24 1430.72 1153.5L1421.56 1127.89C1411.22 1098.99 1397.55 1070.69 1379.05 1046.14L1284.11 1152.58C1284.07 1152.64 1284.02 1152.69 1283.97 1152.74C1282.62 1154.03 1280.96 1154.95 1279.15 1155.4C1275.84 1156.28 1271.72 1155.83 1269.44 1152.97C1266.36 1149.09 1268.78 1144.21 1271.43 1140.91C1286.98 1121.72 1302.38 1102.37 1317.83 1083.08C1332.83 1064.38 1347.83 1045.68 1362.81 1026.97V1026.95Z" fill="#CE6D00"/>
</g>
<path d="M1238.37 1413.93C1070.62 1394.96 905.942 1367.19 749.839 1331.55C729.997 1327.1 710.709 1322.25 691.148 1317.55L661.881 1310.41C652.104 1308.02 642.992 1305.43 633.1 1302.89L575.889 1287.58L520.12 1271.33C510.828 1268.6 501.275 1265.9 492.311 1263.1L465.247 1254.51C447.338 1248.72 429.094 1243.06 411.525 1237.09C376.726 1224.99 341.528 1213.01 308.673 1200.14C292.847 1191.45 279.524 1184.94 270.546 1178.89C254.537 1168.74 241.066 1158.24 230.342 1147.54C221.483 1138.2 214.998 1129.67 206.329 1120.37C198.756 1113.44 189.267 1106.68 178.036 1100.21C165.223 1092.41 148.859 1083.94 134.157 1074.97C119.454 1065.99 103.576 1057.16 91.4834 1048.57C86.9534 1045.3 82.9904 1042.17 79.4685 1039.16C65.5161 1031.8 52.551 1025.6 43.9492 1021.71C31.9803 1016.58 26.3692 1015.86 34.3006 1022.74C38.423 1026.23 42.7068 1030.05 47.9544 1033.93L64.1872 1045.82C75.3686 1053.82 85.7673 1061.9 95.4583 1068.6C103.443 1074.23 97.499 1073.62 85.0021 1069.29C67.1229 1062.52 51.0735 1055.14 37.1994 1047.31C-37.0255 1006.55 -104.63 963.337 -156.322 919.069C-328.646 772.124 -376.406 615.531 -294.373 478.565C-288.038 468.924 -281.305 459.159 -273.331 449.928C-265.357 440.697 -255.57 432.077 -246.617 424.094C-237.665 416.112 -226.955 409.336 -218.07 403.428C-211.07 398.455 -202.705 393.831 -193.077 389.614C-179.614 383.747 -163.606 376.225 -152.746 372.63C-143.432 365.144 -133.611 357.76 -123.284 350.478C-71.2783 317.216 -10.0994 285.217 61.6985 259.656C163.241 223.945 278.769 192.519 406.943 170.66C438.403 164.879 471.497 160.248 504.134 155.666C520.176 153.233 537.434 151.586 554.015 149.597C570.595 147.608 586.966 145.784 604.145 144.291C638.238 141.373 671.566 138.359 705.987 136.743C723.11 135.846 739.853 134.866 756.885 134.238C773.917 133.61 791.113 133.298 807.99 132.955C808.31 132.976 808.631 133.006 808.949 133.046C812.923 132.66 816.834 132.244 820.807 131.858L870.618 127.886C878.939 127.242 887.206 126.499 895.649 125.935L921.091 124.416L972.038 121.384L1023.86 119.36L1049.77 118.325C1058.51 118.043 1067.36 117.934 1076.09 117.721L1128.92 116.625C1271.53 115.003 1418.15 120.077 1565.49 131.735C1602.42 135.05 1639.52 137.849 1676.43 141.994L1731.89 147.874L1787.13 154.658L1811.18 157.63C1801.27 155.906 1791.37 154.181 1781.46 152.502L1725.94 143.866L1698.02 139.532C1688.73 138.166 1679.36 136.954 1669.99 135.651L1613.6 127.996C1594.49 125.398 1575.77 123.439 1556.75 121.128C1537.74 118.818 1518.47 116.461 1499.29 114.642L1441.74 109.004C1422.57 107.002 1403.35 105.505 1383.81 103.999C1364.27 102.494 1344.92 101.007 1325.51 99.4916C1306.25 98.3835 1286.55 97.2101 1267.04 96.0548L1237.64 94.4014C1227.88 93.8924 1218.36 93.6138 1208.33 93.1952C1189.03 92.4995 1169.09 91.7892 1149.49 90.9944C1129.88 90.1996 1110.39 90.2248 1090.67 89.8593C1051.2 88.916 1012.42 89.5179 973.043 89.6696C950.936 90.0482 928.763 90.4438 906.98 90.8069C896.056 90.9969 885.08 91.0433 874.667 91.2818C864.255 91.5202 853.52 91.7513 843.171 91.9958C651.546 94.9195 461.553 116.723 294.157 152.042C219.847 167.738 149.875 185.649 84.758 205.643C73.1306 209.164 61.1432 212.397 49.1776 215.401L14.805 224.674C9.30732 226.164 3.81102 225.597 1.90639 224.584C1.34327 223.499 1.39329 222.433 2.05301 221.456C2.71272 220.479 3.96736 219.612 5.73517 218.913C102.3 176.02 221.9 141.26 359.518 116.092C587.782 74.5207 851.471 52.7656 1128.56 55.0975C1138.62 55.2364 1148.3 54.756 1157.22 53.6753C1169.33 51.1934 1157.97 49.1233 1128.64 48.1235C1042.3 45.4719 956.907 45.0345 873.073 46.8142L841.327 47.4351C830.787 47.6614 820.478 48.164 809.988 48.5339L747.348 51.0125C726.719 52.1323 706.206 53.4016 685.564 54.6588L654.663 56.5853L624.358 59.0303C542.377 65.4704 463.197 74.3012 387.461 85.4512C310.569 96.9134 237.3 110.636 168.215 126.514C92.575 144.266 18.797 165.524 -46.273 183.423C-152.916 213.653 -240.467 251.7 -305.205 295.95C-361.323 333.792 -410.612 373.807 -443.609 416.916C-475.753 458.79 -496.346 502.6 -505.122 547.781C-514.214 592.807 -511.248 639.036 -496.264 685.846C-466.506 779.79 -389.762 874.807 -269.966 966.025C-197.576 1021.56 -107.126 1074.86 -1.02862 1124.51C76.8208 1161.48 160.76 1196.85 250.116 1230.35C257.47 1233.1 269.944 1239.72 268.562 1240.01C265.606 1240.82 261.652 1241.12 257.484 1240.84C253.315 1240.55 249.236 1239.71 246.055 1238.47C222.068 1230.77 196.928 1222.98 172.424 1214.6C147.92 1206.22 124.185 1197.22 100.941 1187.8C-90.4625 1108.03 -250.727 1017.02 -359.599 921.004C-474.37 819.473 -536.774 714.881 -543.111 613.428C-549.449 511.975 -499.592 415.727 -396.495 330.39C-387.821 323.305 -378.327 316.415 -369.209 309.419L-355.314 298.992C-350.472 295.567 -345.189 292.253 -340.157 288.869L-309.267 268.679L-275.622 249.374C-269.897 246.171 -264.363 242.928 -258.451 239.789L-240.216 230.559C-227.891 224.445 -215.941 218.203 -203.18 212.246C-176.84 200.571 -151.186 188.646 -122.475 177.82C-70.3867 157.247 -14.0092 138.237 46.3228 120.903L92.6849 108.375L115.923 102.186L140.155 96.4139L188.737 84.9741L239.102 74.4663C374.647 46.938 523.075 26.7474 680.929 14.3648C789.774 5.74613 903.124 1.38187 1019.36 1.33431C1427.47 2.02472 1853.68 49.5878 2241.9 137.764C2397.89 173.016 2546.27 214.015 2684.13 259.961C2709.65 268.551 2737.64 277.63 2763.75 286.717C2789.86 295.803 2816.52 303.993 2838.5 311.046C2861.74 318.404 2885.3 325.884 2907.31 334.027C2929.32 342.169 2950.92 350.596 2972.04 359.21C2993.17 367.824 3012.81 377.083 3032.79 386.212C3052.77 395.342 3071.15 405.013 3090.25 414.544C3298.57 521.508 3441.8 641.747 3494.23 755.831L3495.35 769.252C3495.83 773.713 3495.99 778.144 3495.64 782.549L3494.26 808.703C3493.44 817.295 3491.22 825.73 3489.54 834.008L3486.5 846.274C3485.47 850.314 3483.55 854.293 3482.08 858.223C3478.55 866.812 3469.92 872.12 3461.35 872.672C3443.94 873.79 3424.78 872.781 3406.45 869.78C3393.02 867.722 3379.35 859.468 3367.63 847.608C3362.06 841.671 3355.09 834.861 3349.75 827.234C3347.01 823.483 3344.03 819.525 3341.95 815.514L3338.41 809.33L3334.5 802.971C3328.02 792.325 3323.23 781.561 3316.25 770.796C3309.27 760.032 3302.4 749.349 3293.46 738.907C3284.51 728.465 3274.65 717.428 3264.2 707.099C3260.82 704.004 3257.42 701.024 3254.02 698.112C3259.85 704.676 3266 711.315 3271.5 717.939C3295.33 745.995 3314.6 774.189 3329.2 802.354C3335.67 816.422 3343.18 830.541 3347.2 844.585C3349.44 851.594 3352.32 858.641 3353.98 865.641L3358.45 886.616C3364.34 917.891 3363.45 948.728 3355.78 978.833L3353.04 989.971L3348.78 1000.92C3345.77 1008.17 3343.08 1015.47 3339.49 1022.62C3331.12 1036.79 3323.88 1051.2 3311.64 1064.62C3299.66 1080.71 3284.81 1096.39 3272.66 1111.56C3258.35 1126.38 3247.38 1140.72 3236.03 1152.84C3230.54 1159.05 3225.15 1165.45 3218.23 1171.73C3211.31 1178.01 3203.31 1184.19 3194.81 1190.76C3185.97 1197.57 3176.09 1204.13 3165.2 1210.42C3153.99 1217.06 3142.73 1224.19 3128.21 1231C3080.27 1256.07 3019.27 1279.31 2963.63 1300.59C2826.61 1352.19 2656.79 1390.79 2463.75 1414.19C2271.89 1437.46 2063.13 1447.38 1846.27 1443.52C1764.71 1441.23 1682.44 1436.98 1599.98 1430.79L1538.11 1425.83C1517.55 1424.16 1496.92 1421.93 1476.32 1419.98L1468.65 1419.25C1489.59 1424.4 1483.85 1427.74 1450.25 1427.49C1418.12 1427.35 1385.46 1426.18 1352.62 1423.97C1334.98 1422.81 1316.59 1421.44 1297.57 1419.87C1278.55 1418.29 1258.75 1416.16 1238.37 1413.93ZM2258.07 307.616C2252.27 305.484 2246.14 303.481 2239.73 301.625C2217.74 295.981 2210.54 295.737 2222.75 300.316C2229.74 302.413 2237.05 304.342 2244.6 306.086C2248.62 306.559 2253.22 307.064 2258.07 307.616ZM2804.47 512.851C2814.86 516.934 2825.18 521.056 2835.1 525.302C2832.05 523.464 2828.99 521.672 2825.82 519.798L2808.63 510.426C2797.02 504.239 2785.87 497.935 2773.26 492.139C2759.72 485.886 2752.1 485.188 2754.58 489.029C2769.35 495.953 2783.72 503.002 2797.76 510.112L2804.47 512.851ZM3257.31 938.501C3261.92 935.093 3264.48 931.231 3264.84 927.124C3277.96 846.531 3234.55 757.807 3146.42 673.837C3112.13 641.594 3071.94 609.808 3026.16 578.732C3014.25 584.538 2996.21 586.365 2962.77 575.522C2945.24 569.342 2928.61 562.815 2912.99 555.986C2903.81 552.088 2894.39 547.981 2885.21 544.106C2876.02 540.23 2865.93 536.476 2856.76 533.042C2853.3 531.774 2849.28 530.752 2844.98 530.052C2915.73 566.754 2973.79 605.931 3017.37 646.372C3020.71 649.527 3023.6 652.71 3026.01 655.907C3079.41 700.685 3119.87 746.465 3146.61 792.356C3156.73 810.099 3164.67 827.865 3170.87 845.514C3175.39 849.526 3180.13 853.327 3184.49 857.739C3189.81 862.867 3194.88 867.97 3199.14 873.414L3196.64 858.868C3194.22 847.634 3190.07 836.283 3186.56 824.947L3179.02 807.864C3176.33 802.177 3174.35 796.488 3170.75 790.899C3163.89 779.499 3158.65 768.091 3150.11 756.74C3119.48 711.84 3079.12 667.132 3029.45 623.082C3022.15 616.311 3010.79 606.103 3013.29 606.941C3026.58 611.53 3037.42 616.991 3044.95 622.887C3150.03 701.943 3215.88 784.515 3238.76 865.933C3241.73 877.473 3245.44 888.782 3246.85 899.758L3249.93 916.233C3250.65 921.641 3250.73 926.942 3251.19 932.234C3251.47 936.746 3254.84 939.376 3256.99 938.47L3257.31 938.501ZM2286.25 1281.64C2389.17 1269.6 2483.34 1251.59 2565.86 1228.15C2648.4 1204.98 2720.79 1177.54 2781.53 1146.41L2807.96 1132.5C2816.48 1127.74 2824.25 1122.67 2832.46 1117.74L2844.78 1110.31L2855.78 1102.57L2877.69 1087.14C2890.32 1076.48 2904.7 1066.4 2915.17 1056.02C2920.63 1050.85 2926.84 1045.91 2931.83 1040.91C2936.83 1035.9 2941.62 1030.95 2946.53 1026.12C2957.98 1014.88 2967.47 1003.27 2975.63 991.447C2975.19 982.505 2969.82 975.107 2959.75 969.668C2954.11 966.567 2951.56 962.119 2950.45 956.789C2948.96 950.621 2948.73 944.525 2949.79 938.556L2950.99 931.387L2951.64 924.514C2952.05 920.16 2952.44 916.082 2953.7 912.364C2955.21 905.759 2957.68 899.264 2961.09 892.906C2964.09 887.873 2968.87 883.14 2975.33 878.813C2980.91 874.896 2988.36 871.476 2997.4 868.675C3000.12 867.823 3003.42 868.436 3006.21 867.637C3005.07 859.923 3003.74 852.168 3001.96 844.394C2995.86 822.709 2986.06 800.877 2972.59 779.032C2950.25 742.615 2918.73 706.299 2878.45 670.589C2845.17 641.104 2806.23 611.361 2783.41 591.351C2750.63 563.548 2709.4 536.604 2660.65 511.128C2604.23 481.756 2540.43 454.095 2470.41 428.647C2456.96 423.443 2442.71 418.601 2428.39 413.754C2414.07 408.906 2400.28 403.878 2385.43 399.256L2341.24 385.383L2330.15 381.904L2318.72 378.625L2295.91 372.071C2265.91 363.102 2234.14 355.144 2203.11 346.886C2187.49 342.794 2171.18 339.237 2155.36 335.264C2139.53 331.291 2123.81 327.651 2107.17 324.086C2033.76 307.516 1958.4 292.65 1881.64 279.596C1843.95 272.856 1805.38 267.213 1767.22 261.239C1747.86 258.556 1728.43 255.844 1708.94 253.104C1689.46 250.31 1669.66 248.156 1649.83 245.56L1626.36 242.619L1602.66 240.096C1586.9 238.448 1571.05 236.769 1555.12 235.059L1507.24 230.938L1483.23 228.894L1459.18 227.285C1443.15 226.228 1427.07 225.175 1410.95 224.125C1394.93 223.377 1378.89 222.628 1362.83 221.876L1338.67 220.766L1314.65 220.154L1266.56 218.926C1138.36 217.057 1014.44 222.351 898.836 234.636C881.946 236.48 863.085 238.021 845.832 240.293C830.03 242.24 813.544 243.914 798.275 245.681C783.007 247.447 769.021 249.289 756.831 250.584C744.64 251.879 734.739 252.837 728.222 253.514C721.704 254.19 718.489 254.071 719.786 253.315C726.221 248.995 735.955 245.615 748.081 243.49C857.458 219.757 1022.2 201.525 1214.56 199.017C1391.08 196.657 1574.55 206.395 1756.32 227.772C1728.93 223.997 1701.25 220.496 1673.41 217.349C1643.8 214.543 1613.66 210.461 1584.55 207.148L1526.62 200.757C1507.47 198.526 1487.86 197.083 1468.36 195.097C1458.58 194.17 1448.73 193.236 1438.88 192.303C1429.03 191.369 1419.21 190.763 1409.35 189.99C1389.54 188.529 1369.5 186.884 1349.3 185.547C1363.85 183.898 1371.39 181.977 1385.51 182.044C1483.92 182.426 1585.53 190.016 1684.77 204.394C1714.14 208.874 1743.86 212.648 1773.73 215.69C1801.43 218.666 1829.23 221.037 1856.95 222.791C1877.02 224.23 1898.03 225.897 1918.33 227.567C1938.63 229.236 1957.65 231.455 1974.59 233.084C2089.75 254.247 2200.95 279.672 2306.16 308.891C2327.72 315.073 2348.33 321.756 2367.83 328.883C2382.67 334.628 2395.85 340.903 2407.04 347.556C2412.35 350.787 2418.42 354.16 2424.43 357.48L2441.11 367.337C2477.19 380.212 2486.87 378.932 2501.84 380.929C2514.51 382.694 2526.95 384.895 2538.97 387.499C2549.16 389.69 2560.78 392.363 2571.62 395.032C2581.15 397.536 2591.03 399.794 2601.19 401.787C2610.39 403.445 2615.75 400.693 2609.14 396.9C2602.53 393.106 2594.46 388.365 2586.4 384.157L2561.79 371.468C2553.16 367.16 2544.34 362.879 2535.02 358.413C2525.7 353.946 2515.44 349.853 2505.01 345.489C2496.32 341.846 2486.36 337.989 2475.57 334.031L2441.68 322.566C2430.42 318.771 2419.48 315.052 2409.68 311.512C2406.99 310.587 2404.37 309.691 2401.87 308.807C2252.58 266.076 2091.36 230.719 1923.73 203.944C1778.5 180.759 1629.92 163.991 1481.55 154.041C1407.48 149.111 1333.67 145.767 1260.5 144.028L1232.95 143.266C1223.8 143.093 1214.7 143.063 1205.55 142.981L1166.54 142.545C1171.44 143.264 1176.22 143.97 1180.86 144.688C1185.5 145.405 1187.37 147.478 1182.56 147.9C1169.93 149.015 1147.94 151.555 1138.96 150.981C1053.46 146.854 967.114 145.422 874.261 152.089C860.703 152.838 847.201 153.662 833.58 154.383C818.088 155.781 802.777 157.313 787.991 158.755C715.954 166 646.475 175.203 580.029 186.299C513.571 197.204 450.397 210.051 390.976 224.744L368.585 230.159C361.244 232.029 354.274 234.073 347.057 236.002C332.872 239.951 318.376 243.779 304.375 247.839C277.752 256.366 249.429 264.455 224.475 273.764C197.829 282.544 174.569 292.361 150.489 301.984C138.542 306.839 127.781 312.108 116.399 317.132L99.6039 324.787C94.0042 327.354 89.0951 330.126 83.8108 332.769C72.6698 338.649 60.783 344.226 49.4783 349.79L17.9765 366.223C10.0371 370.325 3.31765 371.769 1.24385 371.18C-0.82995 370.59 2.33509 366.475 8.50846 362.621C45.1934 336.729 87.996 312.405 136.536 289.866C185.377 267.169 240.088 246.417 300.142 227.811L322.885 220.719C330.399 218.38 338.039 216.075 346.111 213.974L380.136 204.969C369.389 207.372 358.633 209.866 348.01 212.327L314.92 221.004C304.057 223.951 292.64 226.614 282.156 229.643C271.673 232.672 261.008 235.568 250.29 238.344C228.415 243.761 208.067 249.415 186.403 253.974C178.462 255.851 171.133 258.018 164.493 260.451C157.956 262.874 152.113 265.545 147.021 268.436C136.012 275.645 122.207 282.405 109.244 289.8C96.2816 297.194 80.6035 303.961 67.2952 311.6C38.8652 325.923 14.263 341.375 -6.26497 357.8C-9.7291 360.985 -13.3016 363.953 -17.247 366.769C4.42242 371.689 18.5555 381.906 22.3789 399.444C24.3129 408.32 34.0464 412.525 47.8036 413.089C79.4883 414.473 94.4564 415.198 87.0381 430.146C85.4493 433.972 82.5476 438.713 78.1812 444.61L70.8037 454.36L62.6973 466.353L52.5851 480.444L42.8585 497.277L37.3902 506.63L32.9353 516.865L28.2213 527.792L25.6783 533.515L23.9473 539.524C23.8773 542.878 24.4171 546.281 25.5633 549.71C28.5484 553.622 31.6614 557.547 36.1971 558.716C41.3103 560.15 45.4693 562.033 48.14 564.125C52.4539 567.212 55.7529 570.408 57.952 573.632C63.6728 581.363 66.1756 591.726 70.2738 605.684C72.1321 612.634 72.697 620.293 75.224 629.04C77.7509 637.786 78.3383 647.251 81.7193 657.882C83.1539 663.173 84.1169 668.674 85.8279 674.454L91.9149 692.623C93.3863 698.889 97.1428 705.556 99.5942 712.376L103.83 722.834C105.236 726.389 107.528 730.12 109.252 733.728C130.102 775.212 166.28 812.946 204.814 846.928C210.611 853.858 218.008 860.246 224.068 866.438C230.129 872.63 236.151 878.541 243.042 884.141L261.694 900.473C267.656 905.661 274.592 910.781 280.633 915.815C317.485 945.971 361.651 975.353 412.491 1003.54C463.15 1031.61 522.924 1057.73 590.034 1081.11C593.844 1082.45 599.321 1084.58 605.59 1087.21L627.182 1095.66C642.483 1101.73 657.426 1108.17 666.685 1111.93C725.285 1137.11 800.52 1161.77 892.588 1185.17C1081.23 1232.83 1285.61 1267.99 1493.93 1288.63L1494.72 1280.33C1583.94 1292.23 1679.5 1299.21 1775.48 1303.17C1831.4 1305.51 1887.55 1306.86 1943.99 1307.81C1970.97 1307.13 1997.65 1306.17 2023.65 1304.93C2115.68 1300.73 2208.2 1290.84 2286.25 1281.64Z" fill="#FFDB11"/>
<path d="M85.0339 1105.73C92.0096 1109.07 98.3792 1112.68 105.082 1116.18C99.9156 1114.42 95.0242 1112.55 90.4461 1110.59C83.4704 1107.24 76.9706 1103.65 70.4644 1100.12C75.5669 1101.9 80.4326 1103.77 85.0339 1105.73Z" fill="#FFDB11"/>
<path d="M1538.63 315.051L1524.5 315.029L1519.82 312.736L1538.63 315.051Z" fill="#FFDB11"/>
<mask id="mask0_422_43" style="mask-type:alpha" maskUnits="userSpaceOnUse" x="1420" y="910" width="312" height="286">
<rect x="1667" y="1196" width="257.693" height="218.949" transform="rotate(-162.904 1667 1196)" fill="#D9D9D9"/>
</mask>
<g mask="url(#mask0_422_43)">
<path d="M554.475 3602.42C492.541 3589.07 437.832 3554.4 392.173 3499.54C386.313 3492.77 380.973 3484.93 375.405 3477.51L367.151 3466.14C364.391 3462.35 362.07 3457.93 359.359 3453.81L344.124 3428.39L330.148 3400.52C327.835 3395.82 325.391 3391.22 323.265 3386.31L316.959 3371.09C312.852 3360.79 308.51 3350.86 304.671 3340.08C297.261 3318.04 289.591 3296.37 283.553 3272.16C282.302 3254.63 280.713 3241.77 280.751 3229.17C280.387 3208.24 281.389 3185.99 283.741 3162.77C286.024 3142.38 288.813 3123.5 291.153 3103.17C292.396 3088.25 292.678 3074.08 291.994 3060.92C291.492 3044.91 289.851 3028.01 289.29 3009.59C288.729 2991.17 287.551 2973.31 287.892 2955.32C288.057 2948.44 288.377 2941.81 288.818 2935.36C287.512 2920.62 285.875 2908.43 284.641 2900.86C282.738 2890.99 280.721 2890.35 279.669 2905.09C279.18 2912.55 278.537 2920.77 278.292 2928.92L277.59 2953.94C277.239 2970.71 276.481 2987.82 276.331 3001.81C276.13 3013.6 273.894 3013.28 271.22 3005.41C267.783 2992.77 265.562 2978.37 264.605 2962.5C258.744 2880.25 257.454 2790.98 263.94 2696.25C285.144 2381.9 368.132 2021.49 495.743 1683.08C504.975 1659.15 514.466 1634.86 524.153 1611.59C533.841 1588.33 543.927 1566.16 553.219 1545.66C562.51 1525.15 571.779 1507.17 579.66 1491.57C586.081 1478.53 592.876 1466.06 599.962 1454.31C609.85 1437.95 621.971 1417.21 629.19 1406.7C638.311 1387.3 647.59 1368.05 657.026 1348.94C702.276 1260.75 750.763 1173.82 799.685 1100.09C868.581 996.855 940.842 901.107 1012.36 825.557C1030.19 806.034 1047.98 788.916 1065.53 771.999C1074.28 763.258 1083.05 756.143 1091.74 748.348C1100.43 740.554 1108.92 733.188 1117.55 726.451C1134.65 713.186 1151.46 699.839 1167.84 689.585C1176.04 684.264 1184.14 678.82 1192.13 674.15C1200.11 669.48 1207.96 665.525 1215.69 661.558C1215.82 661.546 1215.94 661.558 1216.06 661.593C1218.08 659.938 1220.1 658.226 1222.12 656.571L1246.9 637.88C1251.03 634.801 1255.2 631.503 1259.32 628.593L1271.64 620.248L1296.3 603.56L1320.68 589.086L1332.89 581.794C1336.96 579.494 1340.97 577.581 1344.99 575.444L1369.2 562.97C1433.66 532.451 1495.45 516.978 1553.18 516.896C1567.38 517.802 1582.01 517.46 1595.65 520.329L1616.39 523.817L1636.43 529.479L1645.14 531.988C1641.88 529.774 1638.63 527.56 1635.34 525.455L1616.41 515.476L1606.89 510.481C1603.67 508.998 1600.31 507.894 1597.01 506.572L1577.05 499.07C1570.28 496.521 1563.26 495.404 1556.35 493.513C1549.44 491.623 1542.44 489.669 1535.13 488.971L1513.3 486.443C1506.11 485.309 1498.57 485.375 1490.89 485.482C1483.2 485.59 1475.59 485.704 1467.97 485.762C1460.15 486.752 1452.18 487.672 1444.28 488.599L1432.31 490.202C1428.31 490.829 1424.26 491.954 1420.08 492.844C1411.97 494.814 1403.58 496.871 1395.4 498.667C1387.21 500.462 1378.53 504.17 1370.01 506.997C1353.1 512.161 1335.46 520.838 1317.86 528.567C1307.78 533.598 1297.66 538.682 1287.74 543.615C1282.76 546.108 1277.85 548.272 1273.06 550.783C1268.28 553.295 1263.35 555.849 1258.59 558.363C1171.48 601.126 1072.52 688.115 974.619 802.754C931.146 853.684 888.127 909.027 845.88 968.375C838.368 978.858 830.889 988.727 823.572 998.053L802.124 1026.36C798.689 1030.9 796.623 1030.59 796.451 1028.56C796.923 1026.11 797.654 1023.58 798.598 1021.15C799.541 1018.73 800.676 1016.45 801.926 1014.47C873.391 895.22 949.68 790.847 1027.59 705.727C1156.71 564.947 1288.39 464.278 1409.98 417.914C1414.36 416.359 1418.99 413.414 1423.67 409.195C1430.7 401.075 1427.03 398.318 1414.66 401.45C1378.05 411.357 1340.39 426.307 1301.95 446.197L1287.42 453.603C1282.59 456.11 1277.67 459.225 1272.76 462.061L1243.27 479.632C1233.36 486.134 1223.4 492.968 1213.39 499.797L1198.37 510.125L1183.28 521.564C1142.55 552.099 1101.49 587.748 1060.4 628.223C1018.6 669.651 976.905 715.732 935.633 766.114C890.201 822.145 843.263 886.095 802.43 940.493C734.915 1031.76 670.682 1137.88 612.461 1254.37C562.335 1354.13 513.798 1457.74 470.444 1565.6C428.29 1670.38 389.981 1777.57 356.012 1885.78C322.006 1993.69 292.558 2102.17 268.065 2209.78C218.771 2425.79 189.645 2635.54 182.182 2828.27C177.397 2945.71 182.125 3054.5 196.24 3151.74C206.235 3224.37 219.998 3292.1 237.42 3354.39C238.855 3359.51 239.997 3372.77 239.193 3373.71C237.334 3376.19 235.379 3377.63 233.715 3377.74C232.052 3377.85 230.8 3376.63 230.209 3374.3C224.677 3360.62 218.689 3346.95 213.374 3331.77C208.06 3316.59 203.5 3299.81 199.435 3281.95C167.454 3129.62 156.796 2944.95 172.306 2738.86C188.866 2520.86 230.738 2285.84 295.439 2047.73C360.14 1809.62 446.353 1573.27 548.967 1352.69C557.537 1334.36 566.343 1316.33 575.051 1298.12L588.166 1270.93C592.597 1261.94 597.151 1253.14 601.639 1244.21L628.805 1190.81L656.606 1138.98C661.282 1130.35 665.9 1121.67 670.616 1113.16L684.863 1087.97C694.41 1071.24 703.875 1054.29 713.512 1037.85C732.988 1005.38 752.326 972.449 772.292 941.539C809.134 883.263 846.842 827.872 885.192 775.696L914.135 737.468L928.583 718.519L943.194 700.37L972.399 664.294L1001.78 630.082C1080.34 539.781 1159.75 464.376 1238.14 405.623C1292.26 364.922 1345.54 333.412 1397.23 311.543C1578.16 236.784 1735.93 269.195 1849.79 404.511C1895.66 458.46 1934.32 527.391 1965.02 609.959C1970.64 625.445 1977.04 641.621 1982.6 658.165C1988.16 674.709 1994.55 689.037 1999.63 701.559C2005.06 714.564 2010.55 727.798 2014.92 742.884C2019.28 757.97 2023.27 773.804 2026.93 790.167C2030.58 806.53 2033.15 824.693 2035.96 842.486C2038.76 860.279 2040.49 879.65 2042.64 898.557C2064.04 1111.86 2047.68 1368.65 1995.06 1627.93L1986.62 1659.38C1983.87 1669.81 1980.99 1680.23 1977.9 1690.69L1959.88 1752.63C1953.8 1773.05 1947.2 1793.36 1940.94 1813.2L1931.43 1842.7C1928.29 1852.42 1924.78 1862.17 1921.52 1871.71C1914.23 1892.63 1906.86 1906.77 1902.69 1909.67C1894.2 1915.57 1886.36 1916.78 1880.21 1913.13C1875.61 1910.79 1875.03 1893.88 1877.71 1868.1C1879.19 1855.14 1880.62 1840.38 1883.33 1823.39C1884.6 1815.06 1885.91 1806.28 1887.66 1797.21L1890.2 1783.28L1892.69 1769.02C1896.9 1745.12 1901.93 1720.62 1906 1696.54C1910.06 1672.46 1914.12 1648.55 1917.09 1625.59C1920.06 1602.64 1923.02 1578.45 1925.25 1556.04C1925.81 1549.38 1926.28 1542.98 1926.71 1536.75C1924.93 1551.14 1923.25 1565.65 1921.28 1580.25C1913.21 1641.96 1903.01 1704.85 1890.75 1768.55C1884.26 1800.52 1878.2 1832.42 1870.65 1864.79C1866.98 1880.91 1863.57 1896.99 1859.65 1913.19L1847.67 1961.82C1829.48 2034.49 1808.56 2107.39 1785.11 2179.84L1776.49 2206.62L1767.31 2233.24C1761.14 2250.9 1755.08 2268.63 1748.73 2286.17C1735.58 2321.15 1722.78 2356.49 1708.4 2390.45C1692.37 2430.64 1675.34 2470.39 1659.84 2508.45C1643.62 2546.1 1629.2 2581.96 1616.09 2612.68C1609.52 2628.35 1602.86 2644.46 1595.61 2660.56C1588.35 2676.67 1580.68 2692.74 1572.54 2709.82C1564.07 2727.55 1555.31 2744.88 1546.29 2761.75C1536.89 2779.5 1527.13 2798.44 1516.15 2817.22C1478.16 2885.33 1435.59 2951.54 1396.69 3012.17C1301.45 3159.52 1200.29 3282.33 1098.92 3373.67C998.159 3464.47 898.779 3526.93 804.961 3558.43C770.237 3568.29 736.503 3573.66 703.97 3574.5L679.773 3574.38C671.748 3574.29 664.064 3572.88 656.209 3572.14L653.282 3571.86C659.16 3580.09 654.387 3589.04 639.618 3594.74C625.432 3600.43 611.699 3603.77 598.568 3604.72C591.503 3605.28 584.243 3605.48 576.836 3605.33C569.429 3605.19 562.045 3603.87 554.475 3602.42ZM1743.94 802.111C1742.78 798.167 1741.39 794.59 1739.78 791.411C1733.76 782.215 1730.72 782.989 1733.1 791.503C1734.81 795.141 1736.78 798.323 1738.97 801.022C1740.44 801.386 1742.15 801.717 1743.94 802.111ZM1850.2 1183.92C1852.1 1191.61 1853.95 1199.4 1855.53 1207.56C1855.4 1203.79 1855.23 1200.14 1855.06 1196.31L1853.67 1177.42C1852.62 1165 1851.86 1152.22 1850.11 1140.91C1848.26 1128.7 1845.34 1128.47 1843.88 1137.07C1845.84 1150.64 1847.53 1164.58 1849.04 1178.72L1850.2 1183.92ZM1768.19 2103.14C1772.51 2094.23 1776.22 2084.65 1779.11 2074.89C1838.58 1882.34 1878.33 1681.2 1895.04 1499.63C1901.26 1430 1904.55 1362.55 1904.89 1297.82C1895.73 1313.74 1886.49 1321.43 1878.85 1302.11C1875.17 1290.82 1872.12 1278.54 1869.73 1265.35C1868.24 1257.87 1866.79 1249.95 1865.28 1242.53C1863.78 1235.11 1861.79 1228.14 1860.01 1221.76C1859.31 1219.41 1858.2 1217.76 1856.76 1216.91C1863.78 1290.24 1863.51 1371.78 1855.96 1459.01C1855.35 1465.82 1854.52 1472.79 1853.46 1479.88C1847.39 1575.5 1834.91 1675.91 1816.25 1779.15C1808.94 1819.1 1800.65 1859.52 1791.66 1899.99C1791 1908.6 1790.57 1916.68 1789.57 1926.27C1788.53 1937.37 1787.38 1948.46 1785.65 1960.5L1794.22 1926.66C1800.62 1900.62 1806.33 1874.62 1812.32 1848.54L1820.33 1809.66C1822.92 1796.75 1825.83 1783.7 1827.95 1771.19C1832.49 1745.59 1837.75 1719.66 1841.51 1694.48C1857.78 1594.31 1869.6 1496.41 1876.83 1401.81C1878.1 1387.21 1879.84 1365.26 1880.39 1366.76C1883.25 1375.1 1884.43 1385.95 1883.85 1398.45C1877.94 1565.25 1852.26 1747.69 1808.24 1935.44C1801.88 1962.11 1796 1988.09 1789.33 2013.71L1779.73 2051.99C1776.45 2064.62 1772.96 2077.1 1769.64 2089.5C1766.77 2100.09 1766.51 2105.66 1768.07 2103.12L1768.19 2103.14ZM1108.24 3094.26C1162 3046.59 1215.84 2986.47 1268.11 2915.76C1320.22 2845.65 1370.65 2767.38 1418.37 2682.59L1439.37 2644.83C1446.32 2632 1453.15 2618.6 1460.08 2605.43L1470.5 2585.59L1480.54 2565.27L1500.55 2524.79C1513.26 2497.28 1526.36 2470.81 1537.92 2444.36C1543.79 2431.15 1549.83 2418.34 1555.38 2405.6C1560.93 2392.86 1566.36 2380.27 1571.76 2367.96C1584.32 2339.32 1596.27 2310.16 1607.76 2280.74C1613.52 2259.73 1616.06 2243.29 1615.2 2232.34C1614.76 2226.09 1616.58 2216.07 1619.64 2203.71C1623.08 2189.44 1627.04 2175.1 1631.48 2160.82L1636.78 2143.69L1641.65 2127.36C1644.73 2117.01 1647.61 2107.32 1650.64 2098.32C1655.72 2082.45 1661.13 2066.67 1666.88 2051.04C1671.56 2038.6 1676.84 2026.54 1682.59 2015.13C1687.68 2004.85 1693.26 1995.39 1699.14 1987.09C1700.92 1984.57 1701.98 1985.4 1703.75 1982.99C1708.38 1965.01 1712.95 1946.97 1717.33 1928.96C1729.05 1878.95 1739.22 1829.3 1747.78 1780.29C1762.08 1698.58 1772.24 1618.82 1778.11 1542.13C1782.94 1478.81 1785.43 1415.95 1788.6 1373.02C1792.53 1313.58 1792.14 1257.74 1787.43 1206.78C1781.9 1148.06 1771.95 1094.76 1757.77 1047.84C1755.25 1038.08 1752.14 1029.33 1749 1020.58C1745.86 1011.82 1743.08 1002.54 1739.56 994.422L1729.15 969.97L1726.54 963.841L1723.64 958.246L1717.86 947.056C1710.5 931.516 1701.67 918.693 1693.38 905.023C1689.16 898.294 1684.28 892.957 1679.89 886.547C1675.5 880.138 1670.94 874.495 1665.91 869.201C1644.31 843.859 1620.71 822.9 1595.29 806.476C1583.02 797.636 1569.63 791.544 1556.65 784.596C1549.83 781.893 1543 779.132 1536.16 776.316C1529.36 773.372 1521.99 771.998 1514.91 769.587L1506.43 767.043L1497.58 765.527C1491.67 764.591 1485.74 763.597 1479.8 762.545L1461.26 761.787L1451.96 761.459L1442.34 762.166C1435.91 762.674 1429.47 763.198 1423 763.739C1416.38 764.975 1409.75 766.209 1403.11 767.443L1393.11 769.346L1382.85 772.398L1362.29 778.502C1306.55 798.092 1247.96 833.774 1188.4 884.386C1179.67 891.897 1170.26 899.063 1161.08 907.651C1152.76 915.201 1144.32 922.236 1136.36 929.26C1128.39 936.284 1120.95 943.246 1114.67 948.583C1108.39 953.92 1103.35 958.031 1100.01 960.848C1096.66 963.664 1095.31 963.984 1096.39 961.959C1102.13 950.565 1108.7 940.769 1115.5 933.488C1179.91 857.036 1265.27 783.197 1352.43 741.278C1432.45 702.673 1507.51 691.3 1574.08 707.698C1564.41 703.921 1554.44 700.843 1544.16 698.632C1532.87 697.555 1522.19 693.57 1511.46 691.203L1489.96 686.971C1482.94 685.294 1475.18 685.562 1467.84 684.526C1464.11 684.17 1460.35 683.812 1456.59 683.454C1452.84 683.096 1448.88 683.503 1445.01 683.526C1437.18 683.787 1429.37 683.659 1421.28 684.288C1428.84 677.673 1433.47 671.731 1439.7 669.246C1483.18 651.729 1523.3 650.609 1557.84 665.947C1567.91 671.018 1578.6 674.358 1589.85 675.942C1600.19 677.776 1610.96 678.167 1622.12 677.113C1630.08 676.752 1638.3 676.752 1646.22 676.89C1654.13 677.028 1661.1 678.701 1667.55 679.372C1704.65 707.735 1737.15 746.89 1764.46 796.116C1769.93 806.663 1774.65 818.568 1778.57 831.728C1781.34 842.5 1783.02 854.835 1783.57 868.433C1783.78 875.06 1784.23 881.879 1784.69 888.586L1785.55 908.713C1793.02 932.326 1798.17 927.497 1803.49 929.405C1807.95 931.196 1812.01 934.059 1815.62 937.952C1818.69 941.212 1822.08 945.342 1825.12 949.608C1827.69 953.731 1830.58 957.208 1833.77 960.007C1836.75 962.195 1840.97 954.702 1840.55 946.991C1840.14 939.281 1839.71 929.608 1838.93 921.191L1836.43 895.868C1835.47 887.321 1834.39 878.876 1833.22 870.086C1832.05 861.295 1830.22 853.561 1828.49 845.221C1827.05 838.253 1825.19 831.021 1823.03 823.703L1815.6 803.005C1813.12 796.162 1810.73 789.439 1808.73 782.921C1808.15 781.242 1807.58 779.62 1807.06 778.003C1769.14 705.159 1721.02 651.938 1664.34 620.16C1615.22 592.659 1560.34 580.919 1501.02 585.22C1471.39 587.454 1440.81 593.383 1409.44 602.977L1397.7 606.338C1393.75 607.641 1389.73 609.273 1385.71 610.794L1368.67 617.065C1370.37 617.843 1372.02 618.616 1373.61 619.439C1375.19 620.262 1374.64 624.802 1372.22 626.699C1365.87 631.693 1354.41 641.799 1350.8 642.127C1315.54 648.397 1278.12 661.18 1232.41 694.284C1225.89 698.589 1219.34 703.061 1212.81 707.309C1204.99 713.508 1197.17 719.985 1189.63 726.155C1152.8 756.728 1115.79 791.438 1078.88 830.048C1042.08 868.208 1005.45 910.335 969.265 956.114L955.71 973.076C951.203 978.861 946.745 984.988 942.254 990.887C933.321 1002.86 924.331 1014.6 915.406 1026.8C897.899 1051.89 879.928 1076.27 862.641 1102.9C844.956 1128.6 828.085 1156.1 810.978 1183.31C802.436 1197 794.148 1211.44 785.745 1225.42L773.186 1246.62C768.989 1253.72 764.963 1261.18 760.855 1268.4C751.99 1284.36 742.996 1299.74 734.269 1314.98L709.331 1359.63C703.072 1370.8 699.125 1375.46 698.595 1374.46C698.066 1373.45 702.212 1363.15 707.52 1352.91C741.056 1284.97 776.267 1219.59 812.841 1157.34C849.653 1094.66 887.78 1035.48 926.854 980.348L941.681 959.364C946.578 952.44 951.507 945.574 956.494 939.106L977.609 911.498C971.233 919.177 964.792 927.075 958.433 934.868L937.952 961.528C931.162 970.512 924.316 978.93 917.641 988.037C910.965 997.143 904.298 1005.97 897.687 1014.52C884.36 1031.4 871.553 1048.54 858.891 1063.35C854.112 1069.26 849.412 1075.75 844.842 1082.73C840.325 1089.66 835.95 1097.06 831.763 1104.83C822.072 1123.9 811.438 1142.42 800.755 1162.29C790.073 1182.16 778.602 1201.05 767.603 1221.56C745.435 1260.67 724.217 1301.72 704.163 1344.3C700.503 1352.46 696.941 1360.13 693.313 1367.51C699.669 1375.06 699.152 1396.51 689.179 1437.17C684.131 1457.74 685.659 1465.84 691.398 1464.59C704.559 1461.93 710.729 1460.84 697.484 1497.48C694.232 1506.8 689.787 1518.53 683.921 1533.26L674.154 1557.63L662.57 1587.44L648.698 1622.57L633.172 1664.09L624.517 1687.17L615.726 1712.15L606.359 1738.81L601.419 1752.78L596.652 1767.28C594.388 1775.2 592.363 1783.13 590.591 1791C589.314 1799.67 588.086 1808.34 589.323 1810.25C590.642 1812.68 591.237 1816.34 591.032 1820.77C590.895 1827.25 590.234 1834.17 589.066 1841.36C586.463 1858.53 580.679 1882.5 573.211 1914.66C569.412 1930.7 564.566 1948.66 559.868 1968.82C555.17 1988.98 549.132 2011.19 543.56 2035.63C540.676 2047.84 537.443 2060.64 534.357 2073.95L524.971 2115.67C521.455 2130.17 518.687 2145.19 515.237 2160.82L510.161 2184.7C508.42 2192.82 506.956 2201.19 505.32 2209.38C486.979 2303.32 477.946 2385.55 472.457 2458.49C470.421 2473.75 469.457 2487.44 468.03 2500.91C466.603 2514.38 465.346 2527.19 464.682 2539.11L462.102 2574.14C461.299 2585.26 460.975 2596.04 460.31 2606.78C456.619 2671.01 456.695 2732.05 460.535 2789.01C464.366 2845.75 473.55 2896.16 487.815 2938.76C488.622 2941.19 489.634 2945.2 490.671 2950.23L494.644 2966.12C497.402 2977.58 499.763 2989.96 501.371 2997.11C510.657 3045.53 527.689 3089.6 553.033 3127.57C605.159 3204.67 672.594 3249.35 751.45 3259.03L757.32 3239.32C789.055 3250.68 826.885 3249.25 866.903 3240.64C890.201 3235.69 914.261 3228.35 938.71 3220.04C951.152 3213.39 963.65 3206.12 976.026 3198.35C1019.73 3171.21 1067.43 3130.57 1108.24 3094.26Z" fill="#FFDB11"/>
<path d="M1594.98 1107.51C1590.27 1096.44 1587.21 1082.64 1585.94 1066.67C1585.17 1053.15 1587.02 1039.89 1591.83 1030.05C1594.72 1023.88 1605.92 1029.32 1610.45 1038.77C1614.83 1048.92 1618.54 1060.2 1621.55 1072.52C1623.73 1083.21 1625.11 1094.97 1625.67 1107.63C1625.93 1119.3 1623.45 1128.64 1617.53 1130.09C1612.92 1130.54 1608.91 1128.84 1605.79 1125.11C1601.6 1120.42 1597.97 1114.52 1594.98 1107.51Z" fill="#FFDB11"/>
<path d="M1517.88 1011.49C1515.59 1009.76 1513.37 1007.7 1511.25 1005.88C1505.52 1000.79 1496.49 996.071 1500.3 987.307C1501.32 984.885 1509.86 988.219 1517.25 988.923C1519.74 991.008 1522.81 992.924 1525.8 995.673C1528.8 998.422 1531.75 1001.84 1534.72 1004.98C1536.1 1006.51 1536.71 1012.11 1535.8 1012.64C1531.72 1015.62 1527.84 1016.78 1524.53 1016.05C1522.13 1015.01 1519.9 1013.48 1517.88 1011.49Z" fill="#FFDB11"/>
</g>
<defs>
<clipPath id="clip0_422_43">
<rect width="664" height="294" fill="white" transform="translate(1268 862)"/>
</clipPath>
</defs>
</svg>
